<svg width="32" height="32" viewBox="0 0 32 32" fill="none" xmlns="http://www.w3.org/2000/svg">
<path fill-rule="evenodd" clip-rule="evenodd" d="M24.3975 27.3926C25.4362 26.8287 25.9375 25.4276 25.4396 24.3195C25.3154 24.0428 25.1819 23.7469 25.0426 23.4382C24.1513 21.4624 23.0222 18.9595 22.5495 17.5876C23.4469 16.8511 24.1509 16.0777 24.6997 15.2255C25.1876 14.4716 25.545 13.641 25.7569 12.7684C26.0252 11.5716 26.0719 10.3358 25.8947 9.12222C25.7951 8.44602 25.6272 7.56139 25.215 6.72076C24.7437 5.76666 24.1173 4.89476 23.3276 4.2035C22.1755 3.19498 20.7004 2.61951 19.2403 2.31846C17.8068 2.02319 16.3432 1.99888 14.8889 2.00004C14.0389 2.00102 13.1893 2.03269 12.3416 2.09498C11.6463 2.15093 10.9522 2.22042 10.2597 2.3034C9.58232 2.38214 8.90148 2.46898 8.24959 2.68667C7.65559 2.88467 7.09401 3.33856 6.78717 3.91403C6.59843 4.27066 6.53359 4.67824 6.52896 5.08118C6.52725 5.29197 6.53596 5.50247 6.54467 5.71297C6.55362 5.92916 6.56257 6.14534 6.56022 6.36181C6.55559 6.81339 6.53128 7.26612 6.49538 7.71654C6.42563 8.57129 6.31035 9.42075 6.19511 10.27C6.18983 10.3089 6.18455 10.3478 6.17928 10.3866L6.17465 10.4179C5.73349 13.6195 4.77591 20.0087 4.07539 23.5229L4.06613 23.5692C3.89244 24.5303 4.02328 25.9568 4.91486 27.08C5.47412 27.7863 6.53243 28.6281 8.38853 28.6292C10.46 28.6315 11.4523 28.3108 12.2756 28.0445C13.5782 27.6253 14.3216 26.7337 14.5277 26.2903C15.3243 27.5755 17.1735 28.6315 19.018 28.6315C20.1713 28.604 21.3186 28.4549 22.4407 28.1869C23.1204 28.0178 23.8012 27.7168 24.3975 27.3926ZM9.12032 7.0137C9.1458 6.42318 9.14116 5.83034 9.10643 5.24213C9.09943 5.11227 10.5454 4.9669 11.066 4.91456C11.1488 4.90623 11.2082 4.90026 11.2346 4.89708C12.9489 4.68873 14.6781 4.63216 16.4023 4.72803C17.9921 4.81487 19.6224 4.9735 21.0373 5.80487C21.8757 6.29813 22.4905 7.06928 22.9247 7.95275C23.1586 8.42517 23.2732 9.00759 23.3496 9.53096C23.4295 10.0752 23.4469 10.631 23.4006 11.1798C23.3751 11.4913 23.3346 11.8097 23.2616 12.1142C23.1227 12.6908 22.8807 13.2339 22.5634 13.7272C22.1223 14.4138 21.5457 14.9985 20.9239 15.5057C20.4688 15.875 19.986 16.205 19.4881 16.5084C20.5163 19.974 22.4036 24.6935 23.0636 25.0617C22.8367 25.3339 21.2597 25.8236 19.1164 25.9417C17.4432 26.0344 16.8411 24.1204 16.8411 24.1204L14.7986 17.943H12.8476C12.7992 18.2694 12.7514 18.5884 12.7048 18.8993C12.2207 22.1288 11.8686 24.4782 12.3682 25.0316C12.3682 25.0316 11.9317 25.6419 9.18632 25.9221C8.43253 25.9996 7.35106 25.9059 6.92959 25.1347C6.53065 24.407 6.71346 23.469 6.87305 22.6502C6.90291 22.497 6.93195 22.3479 6.95622 22.2052L6.96658 22.1447C7.29544 20.2231 7.62393 18.3037 7.91727 16.3741C8.19864 14.5192 8.46727 12.6607 8.72201 10.8L8.74864 10.6055C8.82969 10.0103 8.90959 9.41517 8.97558 8.8177C9.04274 8.21791 9.09485 7.61697 9.12032 7.0137ZM14.1668 8.9912C14.2296 8.54529 14.2929 8.09636 14.3587 7.63275C16.2866 7.49497 18.6452 7.81454 18.1161 11.2651C17.5403 15.0011 15.1268 14.9584 13.7184 14.9335C13.5633 14.9307 13.4204 14.9282 13.2935 14.9309C13.6722 12.504 13.9161 10.7716 14.1668 8.9912Z" fill="#808080"/>
</svg>
