<svg width="24" height="24" viewBox="0 0 24 24" fill="none" xmlns="http://www.w3.org/2000/svg">
<path d="M11.9995 1.5C9.81226 1.5026 7.71534 2.37262 6.16873 3.91924C4.62212 5.46585 3.75209 7.56276 3.7495 9.75C3.7495 16.8091 11.2495 22.1411 11.5688 22.3645C11.6951 22.4527 11.8455 22.5 11.9995 22.5C12.1535 22.5 12.3039 22.4527 12.4302 22.3645C12.7495 22.1411 20.2495 16.8091 20.2495 9.75C20.2469 7.56276 19.3769 5.46585 17.8303 3.91924C16.2836 2.37262 14.1867 1.50259 11.9995 1.5V1.5ZM12 6.75027C12.5934 6.75027 13.1734 6.92622 13.6668 7.25586C14.1601 7.58551 14.5446 8.05404 14.7717 8.60222C14.9987 9.1504 15.0582 9.7536 14.9424 10.3355C14.8266 10.9175 14.5409 11.452 14.1214 11.8716C13.7018 12.2911 13.1673 12.5769 12.5853 12.6926C12.0034 12.8084 11.4002 12.749 10.852 12.5219C10.3038 12.2948 9.83528 11.9103 9.50564 11.417C9.17599 10.9236 9.00005 10.3436 9.00005 9.75027C9.00003 9.3563 9.07762 8.96619 9.22838 8.60221C9.37914 8.23823 9.60012 7.9075 9.8787 7.62893C10.1573 7.35035 10.488 7.12937 10.852 6.97861C11.216 6.82785 11.6061 6.75026 12 6.75027V6.75027Z" fill="white"/>
</svg>
