<svg width="24" height="24" viewBox="0 0 24 24" fill="none" xmlns="http://www.w3.org/2000/svg">
<path d="M8.25 15C10.9424 15 13.125 12.8174 13.125 10.125C13.125 7.43261 10.9424 5.25 8.25 5.25C5.55761 5.25 3.375 7.43261 3.375 10.125C3.375 12.8174 5.55761 15 8.25 15Z" stroke="white" stroke-width="2" stroke-linecap="round" stroke-linejoin="round"/>
<path d="M1.49951 18.5059C2.26089 17.4229 3.27166 16.539 4.4465 15.9288C5.62133 15.3186 6.92574 15.0001 8.24959 15C9.57344 14.9999 10.8779 15.3184 12.0528 15.9285C13.2276 16.5386 14.2385 17.4225 14.9999 18.5054" stroke="white" stroke-width="2" stroke-linecap="round" stroke-linejoin="round"/>
<path d="M15.8926 15C17.2166 14.999 18.5213 15.3171 19.6962 15.9273C20.8712 16.5375 21.8819 17.4218 22.6426 18.5054" stroke="white" stroke-width="2" stroke-linecap="round" stroke-linejoin="round"/>
<path fill-rule="evenodd" clip-rule="evenodd" d="M21.764 9.92706C21.5167 9.97493 21.2611 10 20.9998 10C20.5648 10 20.146 9.93057 19.7539 9.80218C19.7941 10.283 19.7441 10.7678 19.6059 11.2313C19.4478 11.762 19.1777 12.2527 18.814 12.6702C18.4503 13.0877 18.0013 13.4224 17.4973 13.6518C16.9933 13.8812 16.446 14 15.8922 14C15.34 14.0001 14.8923 14.4478 14.8924 15.0001C14.8924 15.5524 15.3402 16.0001 15.8925 16C16.732 15.9999 17.5617 15.8199 18.3258 15.4722C19.0899 15.1244 19.7706 14.6169 20.322 13.9839C20.8735 13.3509 21.2829 12.6071 21.5226 11.8026C21.7042 11.1933 21.7853 10.5598 21.764 9.92706ZM17.3216 4.42551C17.1444 4.38107 16.9649 4.34482 16.7837 4.31699C15.9539 4.18955 15.1064 4.24142 14.2984 4.46909C13.7668 4.61886 13.4573 5.17121 13.6071 5.7028C13.7568 6.23439 14.3092 6.54391 14.8408 6.39414C15.3738 6.24397 15.9328 6.20976 16.4801 6.29381C16.6637 6.322 16.8445 6.36328 17.0212 6.41713C17.007 6.28002 16.9998 6.14086 16.9998 6C16.9998 5.44097 17.1144 4.90873 17.3216 4.42551Z" fill="white"/>
<circle cx="21" cy="6" r="3" fill="#D52B2B"/>
</svg>
