<svg width="320" height="156" viewBox="0 0 320 156" fill="none" xmlns="http://www.w3.org/2000/svg">
<path opacity="0.2" d="M17.6043 123.771L1 151.921L319 153V103.36L289.361 58.3913L253.385 113.783L224.604 70.196L196.377 3L159.847 86.541L138.815 16.6208L97.3047 151.921L82.9143 95.6215L70.1844 128.311L53.0267 70.196L31.9946 151.921L17.6043 123.771Z" fill="url(#paint0_linear_339_1148)"/>
<path d="M1 152L17.6043 123.835L31.9946 152L53.0267 70.2317L70.1844 128.378L82.9143 95.6707L97.3047 152L138.815 16.628L159.847 86.5854L196.377 3L224.604 70.2317L253.385 113.841L289.361 58.4207L319 103.953" stroke="#FCCD6C" stroke-width="2"/>
<defs>
<linearGradient id="paint0_linear_339_1148" x1="160" y1="3" x2="160" y2="153" gradientUnits="userSpaceOnUse">
<stop stop-color="#FCCD6C"/>
<stop offset="1" stop-color="#FCCD6C" stop-opacity="0"/>
</linearGradient>
</defs>
</svg>
