<svg width="24" height="13" viewBox="0 0 24 13" fill="none" xmlns="http://www.w3.org/2000/svg">
<g clip-path="url(#clip0_5987_24773)">
<path d="M13.5375 6.5C13.5375 10.0898 10.5094 13 6.76875 13C3.02812 13 0 10.0898 0 6.5C0 2.91025 3.02812 0 6.76875 0C10.5047 0 13.5375 2.91025 13.5375 6.5Z" fill="#AFAFAF"/>
<path d="M20.9626 6.4999C20.9626 9.87954 19.4485 12.6199 17.5782 12.6199C15.7079 12.6199 14.1938 9.87954 14.1938 6.4999C14.1938 3.12025 15.7079 0.379883 17.5782 0.379883C19.4485 0.379883 20.9626 3.12025 20.9626 6.4999Z" fill="#AFAFAF"/>
<path d="M23.9999 6.50027C23.9999 9.52675 23.4655 11.981 22.8093 11.981C22.153 11.981 21.6187 9.52675 21.6187 6.50027C21.6187 3.4738 22.153 1.01953 22.8093 1.01953C23.4655 1.01953 23.9999 3.4738 23.9999 6.50027Z" fill="#AFAFAF"/>
</g>
<defs>
<clipPath id="clip0_5987_24773">
<rect width="24" height="13" fill="white"/>
</clipPath>
</defs>
</svg>
