<svg width="24" height="25" viewBox="0 0 24 25" fill="none" xmlns="http://www.w3.org/2000/svg">
<path d="M20.6148 4.39062C20.449 4.2249 20.2419 4.10634 20.0151 4.04715C19.7882 3.98796 19.5496 3.99026 19.3239 4.05383L3.96202 8.38661C3.70355 8.45951 3.47348 8.60955 3.30257 8.81671C3.13167 9.02386 3.02806 9.27823 3.0056 9.54585C2.98314 9.81346 3.0429 10.0815 3.17689 10.3143C3.31088 10.547 3.51271 10.7333 3.75542 10.8483L10.1807 13.8918L14.5736 9.49897C14.6973 9.37527 14.8651 9.30578 15.04 9.30578C15.2149 9.30578 15.3827 9.37527 15.5064 9.49897C15.6301 9.62267 15.6996 9.79044 15.6996 9.96538C15.6996 10.1403 15.6301 10.3081 15.5064 10.4318L11.1135 14.8246L14.1571 21.2498C14.2625 21.4759 14.4304 21.6671 14.641 21.8008C14.8516 21.9345 15.096 22.0051 15.3455 22.0044C15.3832 22.0044 15.4213 22.0028 15.4596 21.9996C15.7276 21.9787 15.9828 21.8756 16.1902 21.7045C16.3976 21.5333 16.5473 21.3025 16.6188 21.0432L20.9516 5.68148C21.0151 5.45579 21.0174 5.21726 20.9582 4.99039C20.899 4.76353 20.7805 4.55652 20.6148 4.39062Z" fill="black"/>
</svg>
