<svg width="40" height="40" viewBox="0 0 40 40" fill="none" xmlns="http://www.w3.org/2000/svg">
<rect width="40" height="40" rx="6.66667" fill="white"/>
<path d="M8.3335 12.0378L19.9142 23.6186H8.3335L8.3335 12.0378Z" fill="#F8C471"/>
<path d="M8.3335 23.6182H19.9142V35.1989L8.3335 23.6182Z" fill="#ACD9B7"/>
<path d="M24.7895 14.3129C22.8973 11.0354 24.0202 6.84443 27.2977 4.95217L30.7412 10.9164C32.6335 14.1939 31.5105 18.3849 28.233 20.2771L24.7895 14.3129Z" fill="#ACD9B7"/>
<path d="M15.957 12.7238C17.8493 16.0013 22.0402 17.1242 25.3177 15.232L21.8743 9.26769C19.982 5.99019 15.7911 4.86723 12.5136 6.7595L15.957 12.7238Z" fill="#3D4D41"/>
<path d="M10.1138 18.23H29.0562V19.571H10.1138V18.23Z" fill="black"/>
<path d="M17.9389 21.8644C17.9389 21.8644 16.6122 20.5377 14.9756 18.901C13.339 17.2644 12.0122 15.9377 12.0122 15.9377C13.6489 14.3011 16.3023 14.3011 17.9389 15.9377C19.5755 17.5743 19.5755 20.2278 17.9389 21.8644Z" fill="#333333"/>
<path d="M17.9389 21.8644C16.3023 23.501 13.6488 23.501 12.0122 21.8644C10.3756 20.2278 10.3756 17.5744 12.0122 15.9377C12.0122 15.9377 13.3389 17.2645 14.9755 18.9011C16.6122 20.5377 17.9389 21.8644 17.9389 21.8644Z" fill="black"/>
<path d="M27.1567 21.8644C27.1567 21.8644 25.83 20.5377 24.1934 18.901C22.5568 17.2644 21.23 15.9377 21.23 15.9377C22.8666 14.3011 25.5201 14.3011 27.1567 15.9377C28.7933 17.5743 28.7933 20.2278 27.1567 21.8644Z" fill="#333333"/>
<path d="M27.1562 21.8644C25.5196 23.501 22.8661 23.501 21.2295 21.8644C19.5929 20.2278 19.5929 17.5744 21.2295 15.9377C21.2295 15.9377 22.5562 17.2645 24.1928 18.9011C25.8294 20.5377 27.1562 21.8644 27.1562 21.8644Z" fill="black"/>
<rect x="19.1704" y="19.3931" width="1.27408" height="0.172173" fill="black"/>
<path d="M19.9146 23.6182L27.0411 30.7448H19.9146V23.6182Z" fill="#FCC5F3"/>
</svg>
