<svg width="24" height="24" viewBox="0 0 24 24" fill="none" xmlns="http://www.w3.org/2000/svg">
<path d="M6.71096 13.5L3.00006 16.5V4.5C3.00006 4.30109 3.07908 4.11032 3.21973 3.96967C3.36038 3.82902 3.55115 3.75 3.75006 3.75H15.7501C15.949 3.75 16.1397 3.82902 16.2804 3.96967C16.421 4.11032 16.5001 4.30109 16.5001 4.5V12.75C16.5001 12.9489 16.421 13.1397 16.2804 13.2803C16.1397 13.421 15.949 13.5 15.7501 13.5H6.71096Z" stroke="#808080" stroke-width="2" stroke-linecap="round" stroke-linejoin="round"/>
<path d="M7.50006 13.5V17.25C7.50006 17.4489 7.57908 17.6397 7.71973 17.7803C7.86038 17.921 8.05115 18 8.25006 18H17.2892L21.0001 21V9C21.0001 8.80109 20.921 8.61032 20.7804 8.46967C20.6397 8.32902 20.449 8.25 20.2501 8.25H16.5001" stroke="#808080" stroke-width="2" stroke-linecap="round" stroke-linejoin="round"/>
</svg>
