<?xml version="1.0" encoding="UTF-8"?>
<svg width="136px" height="106px" viewBox="0 0 136 106" version="1.1" xmlns="http://www.w3.org/2000/svg" xmlns:xlink="http://www.w3.org/1999/xlink">
    <title>Untitled</title>
    <g id="Page-1" stroke="none" stroke-width="1" fill="none" fill-rule="evenodd">
        <g id="Visual">
            <path d="M68,0 L68,41 C68,45.4183 64.4183,49 60,49 L25,49 C20.5817,49 17,52.5817 17,57 L17,68.5" id="Path" stroke="#717171" stroke-width="3"></path>
            <path d="M68,0 L68,41 C68,45.4183 71.5817,49 76,49 L111,49 C115.418,49 119,52.5817 119,57 L119,68.5" id="Path" stroke="#717171" stroke-width="3"></path>
            <line x1="68" y1="24" x2="68" y2="68" id="Path" stroke="#717171" stroke-width="3"></line>
            <rect id="Rectangle" fill="#FFFFFF" fill-rule="nonzero" x="0" y="66" width="40" height="40" rx="6.66667"></rect>
            <polygon id="Path" fill="#F8C471" fill-rule="nonzero" points="8.3335 78.038 19.9142 89.619 8.3335 89.619"></polygon>
            <polygon id="Path" fill="#ACD9B7" fill-rule="nonzero" points="8.3335 89.618 19.9142 89.618 19.9142 101.199"></polygon>
            <path d="M24.7895,80.313 C22.8973,77.035 24.0202,72.844 27.2977,70.952 L27.2977,70.952 L30.7412,76.916 C32.6335,80.194 31.5105,84.385 28.233,86.277 L28.233,86.277 L24.7895,80.313 Z" id="Path" fill="#ACD9B7" fill-rule="nonzero"></path>
            <path d="M15.957,78.724 C17.8493,82.001 22.0402,83.124 25.3177,81.232 L25.3177,81.232 L21.8743,75.268 C19.982,71.99 15.7911,70.867 12.5136,72.759 L12.5136,72.759 L15.957,78.724 Z" id="Path" fill="#3D4D41" fill-rule="nonzero"></path>
            <polygon id="Path" fill="#000000" fill-rule="nonzero" points="10.1138 84.23 29.0562 84.23 29.0562 85.571 10.1138 85.571"></polygon>
            <path d="M17.9389,87.864 C17.9389,87.864 16.6122,86.538 14.9756,84.901 C13.339,83.264 12.0122,81.938 12.0122,81.938 C13.6489,80.301 16.3023,80.301 17.9389,81.938 C19.5755,83.574 19.5755,86.228 17.9389,87.864 Z" id="Path" fill="#333333" fill-rule="nonzero"></path>
            <path d="M17.9389,87.864 C16.3023,89.501 13.6488,89.501 12.0122,87.864 C10.3756,86.228 10.3756,83.574 12.0122,81.938 C12.0122,81.938 13.3389,83.264 14.9755,84.901 C16.6122,86.538 17.9389,87.864 17.9389,87.864 Z" id="Path" fill="#000000" fill-rule="nonzero"></path>
            <path d="M27.1567,87.864 C27.1567,87.864 25.83,86.538 24.1934,84.901 C22.5568,83.264 21.23,81.938 21.23,81.938 C22.8666,80.301 25.5201,80.301 27.1567,81.938 C28.7933,83.574 28.7933,86.228 27.1567,87.864 Z" id="Path" fill="#333333" fill-rule="nonzero"></path>
            <path d="M27.1562,87.864 C25.5196,89.501 22.8661,89.501 21.2295,87.864 C19.5929,86.228 19.5929,83.574 21.2295,81.938 C21.2295,81.938 22.5562,83.264 24.1928,84.901 C25.8294,86.538 27.1562,87.864 27.1562,87.864 Z" id="Path" fill="#000000" fill-rule="nonzero"></path>
            <rect id="Rectangle" fill="#000000" fill-rule="nonzero" x="19.1704" y="85.393" width="1.27408" height="1"></rect>
            <polygon id="Path" fill="#FCC5F3" fill-rule="nonzero" points="19.9146 89.618 27.0411 96.745 19.9146 96.745"></polygon>
            <rect id="Rectangle" fill="#FFFFFF" fill-rule="nonzero" x="48" y="66" width="40" height="40" rx="6.66667"></rect>
            <rect id="Rectangle" fill="#FFFFFF" fill-rule="nonzero" x="52" y="69" width="33" height="33"></rect>
            <polygon id="Path" fill="#3D4D41" fill-rule="nonzero" points="62.5601 102 71.8001 102 71.8001 92.76"></polygon>
            <circle id="Oval" fill="#FCC5F3" fill-rule="nonzero" cx="72.7901" cy="85.5" r="7.293"></circle>
            <circle id="Oval" fill="#ACD9B7" fill-rule="nonzero" cx="61.7183" cy="86.605" r="6.5835"></circle>
            <polygon id="Path" fill="#000000" fill-rule="nonzero" points="59.458 84.881 77.6112 84.881 77.6112 86.166 59.458 86.166"></polygon>
            <path d="M66.9571,88.363 C66.9571,88.363 65.6856,87.092 64.1172,85.523 C62.5488,83.955 61.2773,82.684 61.2773,82.684 C62.8457,81.115 65.3886,81.115 66.9571,82.684 C68.5255,84.252 68.5255,86.795 66.9571,88.363 Z" id="Path" fill="#333333" fill-rule="nonzero"></path>
            <path d="M66.9571,88.363 C65.3887,89.932 62.8458,89.932 61.2773,88.363 C59.7089,86.795 59.7089,84.252 61.2773,82.684 C61.2773,82.684 62.5488,83.955 64.1172,85.523 C65.6856,87.092 66.9571,88.363 66.9571,88.363 Z" id="Path" fill="#000000" fill-rule="nonzero"></path>
            <path d="M75.7925,88.363 C75.7925,88.363 74.5211,87.092 72.9526,85.523 C71.3842,83.955 70.1128,82.684 70.1128,82.684 C71.6812,81.115 74.2241,81.115 75.7925,82.684 C77.3609,84.252 77.3609,86.795 75.7925,88.363 Z" id="Path" fill="#333333" fill-rule="nonzero"></path>
            <path d="M75.7925,88.363 C74.2241,89.932 71.6812,89.932 70.1128,88.363 C68.5444,86.795 68.5444,84.252 70.1128,82.684 C70.1128,82.684 71.3842,83.955 72.9527,85.523 C74.5211,87.092 75.7925,88.363 75.7925,88.363 Z" id="Path" fill="#000000" fill-rule="nonzero"></path>
            <rect id="Rectangle" fill="#000000" fill-rule="nonzero" x="68.1367" y="85.995" width="1.221" height="1"></rect>
            <path d="M71.8002,80.814 C68.1551,80.814 65.2002,77.859 65.2002,74.214 L65.2002,74.214 L71.8002,74.214 C75.4453,74.214 78.4002,77.169 78.4002,80.814 L78.4002,80.814 L71.8002,80.814 Z" id="Path" fill="#ACD9B7" fill-rule="nonzero"></path>
            <path d="M65.1998,78.9 C68.8449,78.9 71.7998,75.945 71.7998,72.3 L71.7998,72.3 L65.1998,72.3 C61.5547,72.3 58.5998,75.255 58.5998,78.9 L58.5998,78.9 L65.1998,78.9 Z" id="Path" fill="#3D4D41" fill-rule="nonzero"></path>
            <path d="M69.16,85.5 C69.16,85.5 69.16,87.716 69.16,90.45 C69.16,93.184 69.16,95.4 69.16,95.4 C66.6085,95.4 64.54,93.184 64.54,90.45 C64.54,87.716 66.6085,85.5 69.16,85.5 Z" id="Path" fill="#F8C471" fill-rule="nonzero"></path>
            <rect id="Rectangle" fill="#FFFFFF" fill-rule="nonzero" x="96" y="66" width="40" height="40" rx="6.66667"></rect>
            <g id="Group" transform="translate(99.000000, 70.000000)" fill-rule="nonzero">
                <rect id="Rectangle" fill="#FFFFFF" x="0" y="0" width="32" height="32"></rect>
                <polygon id="Path" fill="#F8C471" points="3.4 17.034 16.966 30.6 3.4 30.6"></polygon>
                <polygon id="Path" fill="#ACD9B7" points="30.6 17.034 17.034 30.6 30.6 30.6"></polygon>
                <path d="M26.107,7.742 C24.238,10.978 20.1,12.087 16.864,10.219 L16.864,10.219 L20.264,4.33 C22.132,1.093 26.271,-0.0153 29.507,1.853 L29.507,1.853 L26.107,7.742 Z" id="Path" fill="#3D4D41"></path>
                <path d="M7.752,7.742 C9.62,10.978 13.758,12.087 16.994,10.219 L16.994,10.219 L13.594,4.33 C11.726,1.093 7.588,-0.0153 4.352,1.853 L4.352,1.853 L7.752,7.742 Z" id="Path" fill="#ACD9B7"></path>
                <polygon id="Path" fill="#000000" points="7.684 16.362 26.387 16.362 26.387 17.686 7.684 17.686"></polygon>
                <path d="M15.41,19.95 C15.41,19.95 14.1,18.64 12.484,17.024 C10.868,15.408 9.558,14.098 9.558,14.098 C11.174,12.482 13.794,12.482 15.41,14.098 C17.026,15.714 17.026,18.334 15.41,19.95 Z" id="Path" fill="#333333"></path>
                <path d="M15.41,19.95 C13.795,21.566 11.175,21.566 9.559,19.95 C7.943,18.334 7.943,15.714 9.559,14.098 C9.559,14.098 10.869,15.408 12.485,17.024 C14.1,18.64 15.41,19.95 15.41,19.95 Z" id="Path" fill="#000000"></path>
                <path d="M24.513,19.95 C24.513,19.95 23.203,18.64 21.587,17.024 C19.971,15.408 18.661,14.098 18.661,14.098 C20.277,12.482 22.897,12.482 24.513,14.098 C26.129,15.714 26.129,18.334 24.513,19.95 Z" id="Path" fill="#333333"></path>
                <path d="M24.513,19.95 C22.898,21.566 20.278,21.566 18.662,19.95 C17.046,18.334 17.046,15.714 18.662,14.098 C18.662,14.098 19.972,15.408 21.588,17.024 C23.203,18.64 24.513,19.95 24.513,19.95 Z" id="Path" fill="#000000"></path>
                <rect id="Rectangle" fill="#000000" x="16.626" y="17.51" width="1.258" height="1"></rect>
                <polygon id="Path" fill="#FCC5F3" points="23.834 30.6 10.2 30.6 17 23.8"></polygon>
            </g>
        </g>
    </g>
</svg>