<svg width="48" height="48" viewBox="0 0 48 48" fill="none" xmlns="http://www.w3.org/2000/svg">
<mask id="mask0_2562_15981" style="mask-type:alpha" maskUnits="userSpaceOnUse" x="0" y="0" width="48" height="48">
<rect width="48" height="48" rx="12" fill="#C4C4C4"/>
</mask>
<g mask="url(#mask0_2562_15981)">
<rect width="48" height="48" fill="#530B6E"/>
</g>
<g clip-path="url(#clip0_2562_15981)">
<path d="M29.13 21.6174C28.8205 21.3981 28.4518 21.2851 28.0764 21.2945C27.721 21.2824 27.3712 21.3889 27.0791 21.5981C26.8052 21.8068 26.604 22.1011 26.5054 22.4373C26.3531 22.9426 26.2847 23.4709 26.3029 23.9997C26.2865 24.528 26.3497 25.0558 26.4904 25.564C26.5845 25.9198 26.7885 26.2341 27.0716 26.4593C27.3626 26.6805 27.717 26.7948 28.0783 26.7842C28.4382 26.7905 28.7909 26.6803 29.0869 26.469C29.3604 26.2683 29.5641 25.9822 29.668 25.653C29.5553 25.1038 29.5006 24.5436 29.5049 23.9823C29.5005 23.428 29.5551 22.8749 29.668 22.3329C29.5664 22.0418 29.378 21.7914 29.13 21.6174Z" fill="white"/>
<path d="M26.0593 8.28675C26.9131 8.63641 27.7297 9.07573 28.4964 9.59778C29.2631 10.1005 30.1386 10.7096 29.8443 11.4483C28.8751 13.1983 26.513 12.3919 25.1707 11.7519C23.6653 11.0345 21.9706 9.93424 20.2477 10.232C18.5249 10.5298 17.535 12.6665 17.0101 14.2251C18.9073 13.6662 21.7156 13.3104 22.8217 15.4529C23.6522 17.0501 23.5715 20.1131 21.71 20.9156C19.6478 21.8012 18.1349 19.8675 16.6145 18.9606C15.2891 18.1717 12.5914 16.5977 11.5285 18.6067C10.7055 20.1827 11.6335 21.923 10.8517 23.4796C9.87688 25.4036 7.66098 24.9608 6 24.7152C6.37434 25.1314 6.77315 25.5233 7.19418 25.889C7.99093 26.5251 8.99014 27.0375 10.0231 26.8558C10.9098 26.674 11.5116 26.2138 12.1546 25.5854C12.7977 24.9569 13.092 24.108 14.0293 23.8219C14.7702 23.6188 15.5577 23.7063 16.2396 24.0674C17.6981 24.8119 19.001 26.4497 18.8848 28.1978C18.8229 29.1104 18.1574 29.8278 17.4713 30.3403C17.0738 30.6361 16.2921 30.9204 15.2816 31.0441C16.5939 32.9101 18.5455 32.8502 20.8401 32.651C22.6642 32.4905 24.6757 31.3303 26.5242 31.7847C28.5864 32.2894 27.9227 34.4667 26.6742 35.509C25.2175 36.7291 23.2547 36.9263 21.4344 36.7716C22.7328 37.4637 24.0933 38.0239 25.4969 38.4443C44.9937 44.1273 44.4876 4.25698 26.0593 8.28675ZM32.3076 25.5641C32.4031 25.9197 32.6077 26.2338 32.8907 26.4594C33.1817 26.6805 33.5361 26.7948 33.8974 26.7842C34.2567 26.7909 34.609 26.6806 34.9041 26.4691C35.1968 26.2585 35.4106 25.9506 35.5096 25.597C35.5236 25.5607 35.53 25.5218 35.5284 25.4829C35.5409 25.4672 35.547 25.4471 35.5452 25.4268C35.5584 25.274 35.6446 25.2102 35.8058 25.2334L37.9299 25.5776C37.9545 25.5775 37.9789 25.5825 38.0017 25.5921C38.0244 25.6018 38.0451 25.6159 38.0626 25.6338C38.0801 25.6517 38.0939 25.673 38.1034 25.6964C38.1129 25.7199 38.1179 25.745 38.1179 25.7704C38.1179 25.7758 38.1177 25.7811 38.1173 25.7865C38.1009 25.9836 38.0632 26.1781 38.0049 26.3666C37.76 27.2009 37.2262 27.9132 36.5051 28.3679C35.7308 28.8589 34.8361 29.1099 33.9274 29.0911C33.0187 29.1148 32.1251 28.8487 31.3684 28.3292C31.2597 28.2519 31.1566 28.1707 31.0591 28.0856C30.9394 28.187 30.8142 28.2813 30.6842 28.3679C29.91 28.8592 29.0152 29.1102 28.1064 29.0911C27.1978 29.1148 26.3041 28.8487 25.5475 28.3292C24.8233 27.8224 24.279 27.0858 23.9971 26.2312C23.7726 25.5046 23.6649 24.7449 23.6784 23.9824C23.6646 23.2318 23.7723 22.4842 23.9971 21.7702C24.273 20.9326 24.8129 20.2145 25.5306 19.7302C26.3093 19.2414 27.2041 18.9844 28.1157 18.9879C29.0272 18.9913 29.9201 19.2549 30.6954 19.7495C30.8049 19.8238 30.9107 19.9039 31.0122 19.9893C31.121 19.8958 31.2342 19.8081 31.3515 19.7263C32.1303 19.2375 33.025 18.9806 33.9366 18.984C34.8482 18.9874 35.7411 19.251 36.5163 19.7457C37.2142 20.1931 37.7397 20.8766 38.003 21.6793C38.0848 21.8994 38.1347 22.1307 38.1511 22.3658V22.4025C38.1533 22.4278 38.1507 22.4533 38.1433 22.4776C38.136 22.5018 38.1241 22.5243 38.1083 22.5438C38.0926 22.5633 38.0732 22.5794 38.0514 22.5912C38.0296 22.603 38.0058 22.6103 37.9812 22.6125C37.9754 22.6131 37.9695 22.6134 37.9636 22.6133L35.8377 22.9362H35.8077C35.7541 22.9373 35.702 22.9184 35.6609 22.8828C35.6199 22.8472 35.5928 22.7975 35.5846 22.7429L35.5303 22.4373C35.4406 22.1019 35.237 21.8109 34.9566 21.6175C34.6471 21.3982 34.2784 21.2852 33.903 21.2945C33.5475 21.2822 33.1977 21.3887 32.9057 21.5981C32.6312 21.8062 32.4299 22.1008 32.332 22.4373C32.1797 22.9427 32.1113 23.4709 32.1295 23.9998C32.1123 24.5277 32.1737 25.0553 32.3114 25.5641H32.3076Z" fill="white"/>
</g>
<defs>
<clipPath id="clip0_2562_15981">
<rect width="34" height="31" fill="white" transform="translate(6 8)"/>
</clipPath>
</defs>
</svg>
