<svg width="34" height="31" viewBox="0 0 34 31" fill="none" xmlns="http://www.w3.org/2000/svg">
<path d="M23.13 13.6174C22.8205 13.3981 22.4518 13.2851 22.0764 13.2945C21.721 13.2824 21.3712 13.3889 21.0791 13.5981C20.8052 13.8068 20.604 14.1011 20.5054 14.4373C20.3531 14.9426 20.2847 15.4709 20.3029 15.9997C20.2865 16.528 20.3497 17.0558 20.4904 17.564C20.5845 17.9198 20.7885 18.2341 21.0716 18.4593C21.3626 18.6805 21.717 18.7948 22.0783 18.7842C22.4382 18.7905 22.7909 18.6803 23.0869 18.469C23.3604 18.2683 23.5641 17.9822 23.668 17.653C23.5553 17.1038 23.5006 16.5436 23.5049 15.9823C23.5005 15.428 23.5551 14.8749 23.668 14.3329C23.5664 14.0418 23.378 13.7914 23.13 13.6174Z" fill="white"/>
<path d="M20.0593 0.286751C20.9131 0.636409 21.7297 1.07573 22.4964 1.59778C23.2631 2.10053 24.1386 2.70964 23.8443 3.4483C22.8751 5.19827 20.513 4.39193 19.1707 3.75189C17.6653 3.0345 15.9706 1.93424 14.2477 2.23202C12.5249 2.52981 11.535 4.66651 11.0101 6.22505C12.9073 5.66622 15.7156 5.31043 16.8217 7.45293C17.6522 9.05014 17.5715 12.1131 15.71 12.9156C13.6478 13.8012 12.1349 11.8675 10.6145 10.9606C9.28913 10.1717 6.59144 8.59766 5.52849 10.6067C4.70549 12.1827 5.63347 13.923 4.85172 15.4796C3.87688 17.4036 1.66098 16.9608 0 16.7152C0.374335 17.1314 0.77315 17.5233 1.19418 17.8889C1.99093 18.5251 2.99014 19.0375 4.0231 18.8558C4.90983 18.674 5.51161 18.2138 6.15464 17.5854C6.79766 16.9569 7.09198 16.108 8.02933 15.8219C8.77017 15.6188 9.5577 15.7063 10.2396 16.0674C11.6981 16.8119 13.001 18.4497 12.8848 20.1978C12.8229 21.1104 12.1574 21.8278 11.4713 22.3403C11.0738 22.6361 10.2921 22.9204 9.28163 23.0441C10.5939 24.9101 12.5455 24.8502 14.8401 24.651C16.6642 24.4905 18.6757 23.3303 20.5242 23.7847C22.5864 24.2894 21.9227 26.4667 20.6742 27.509C19.2175 28.7291 17.2547 28.9263 15.4344 28.7716C16.7328 29.4637 18.0933 30.0239 19.4969 30.4443C38.9937 36.1273 38.4876 -3.74302 20.0593 0.286751ZM26.3076 17.5641C26.4031 17.9197 26.6077 18.2338 26.8907 18.4594C27.1817 18.6805 27.5361 18.7948 27.8974 18.7842C28.2567 18.7909 28.609 18.6806 28.9041 18.4691C29.1968 18.2585 29.4106 17.9506 29.5096 17.597C29.5236 17.5607 29.53 17.5218 29.5284 17.4829C29.5409 17.4672 29.547 17.4471 29.5452 17.4268C29.5584 17.274 29.6446 17.2102 29.8058 17.2334L31.9299 17.5776C31.9545 17.5775 31.9789 17.5825 32.0017 17.5921C32.0244 17.6018 32.0451 17.6159 32.0626 17.6338C32.0801 17.6517 32.0939 17.673 32.1034 17.6964C32.1129 17.7199 32.1179 17.745 32.1179 17.7704C32.1179 17.7758 32.1177 17.7811 32.1173 17.7865C32.1009 17.9836 32.0632 18.1781 32.0049 18.3666C31.76 19.2009 31.2262 19.9132 30.5051 20.3679C29.7308 20.8589 28.8361 21.1099 27.9274 21.0911C27.0187 21.1148 26.1251 20.8487 25.3684 20.3292C25.2597 20.2519 25.1566 20.1707 25.0591 20.0856C24.9394 20.187 24.8142 20.2813 24.6842 20.3679C23.91 20.8592 23.0152 21.1102 22.1064 21.0911C21.1978 21.1148 20.3041 20.8487 19.5475 20.3292C18.8233 19.8224 18.279 19.0858 17.9971 18.2312C17.7726 17.5046 17.6649 16.7449 17.6784 15.9824C17.6646 15.2318 17.7723 14.4842 17.9971 13.7702C18.273 12.9326 18.8129 12.2145 19.5306 11.7302C20.3093 11.2414 21.2041 10.9844 22.1157 10.9879C23.0272 10.9913 23.9201 11.2549 24.6954 11.7495C24.8049 11.8238 24.9107 11.9039 25.0122 11.9893C25.121 11.8958 25.2342 11.8081 25.3515 11.7263C26.1303 11.2375 27.025 10.9806 27.9366 10.984C28.8482 10.9874 29.7411 11.251 30.5163 11.7457C31.2142 12.1931 31.7397 12.8766 32.003 13.6793C32.0848 13.8994 32.1347 14.1307 32.1511 14.3658V14.4025C32.1533 14.4278 32.1507 14.4533 32.1433 14.4776C32.136 14.5018 32.1241 14.5243 32.1083 14.5438C32.0926 14.5633 32.0732 14.5794 32.0514 14.5912C32.0296 14.603 32.0058 14.6103 31.9812 14.6125C31.9754 14.6131 31.9695 14.6134 31.9636 14.6133L29.8377 14.9362H29.8077C29.7541 14.9373 29.702 14.9184 29.6609 14.8828C29.6199 14.8472 29.5928 14.7975 29.5846 14.7429L29.5303 14.4373C29.4406 14.1019 29.237 13.8109 28.9566 13.6175C28.6471 13.3982 28.2784 13.2852 27.903 13.2945C27.5475 13.2822 27.1977 13.3887 26.9057 13.5981C26.6312 13.8062 26.4299 14.1008 26.332 14.4373C26.1797 14.9427 26.1113 15.4709 26.1295 15.9998C26.1123 16.5277 26.1737 17.0553 26.3114 17.5641H26.3076Z" fill="white"/>
</svg>
