<svg width="80" height="80" viewBox="0 0 80 80" fill="none" xmlns="http://www.w3.org/2000/svg">
<mask id="mask0_1674_4973" style="mask-type:alpha" maskUnits="userSpaceOnUse" x="0" y="0" width="80" height="80">
<path d="M0 32C0 16.9151 0 9.37258 4.68629 4.68629C9.37258 0 16.9151 0 32 0H48C63.0849 0 70.6274 0 75.3137 4.68629C80 9.37258 80 16.9151 80 32V48C80 63.0849 80 70.6274 75.3137 75.3137C70.6274 80 63.0849 80 48 80H32C16.9151 80 9.37258 80 4.68629 75.3137C0 70.6274 0 63.0849 0 48V32Z" fill="#C4C4C4"/>
</mask>
<g mask="url(#mask0_1674_4973)">
<rect width="80" height="80" fill="#262626"/>
<path d="M40 55C48.2843 55 55 48.2843 55 40C55 31.7157 48.2843 25 40 25C31.7157 25 25 31.7157 25 40C25 48.2843 31.7157 55 40 55Z" stroke="white" stroke-width="2" stroke-miterlimit="10"/>
<path d="M29.3887 29.3911L50.6074 50.6099" stroke="white" stroke-width="2" stroke-linecap="round" stroke-linejoin="round"/>
</g>
</svg>
