<svg width="40" height="40" viewBox="0 0 40 40" fill="none" xmlns="http://www.w3.org/2000/svg">
<circle cx="20" cy="20" r="20" fill="#AFAFAF"/>
<path d="M28.2496 12.5H24.5V11.75C24.4993 11.1535 24.2621 10.5816 23.8402 10.1598C23.4184 9.73794 22.8465 9.50067 22.25 9.5H17.75C17.1535 9.50067 16.5816 9.73794 16.1598 10.1598C15.7379 10.5816 15.5007 11.1535 15.5 11.75V12.5H11.7496C11.5507 12.5 11.36 12.579 11.2193 12.7197C11.0787 12.8603 10.9996 13.0511 10.9996 13.25C10.9996 13.4489 11.0787 13.6397 11.2193 13.7803C11.36 13.921 11.5507 14 11.7496 14H12.4996V27.5C12.5001 27.8977 12.6583 28.279 12.9395 28.5602C13.2207 28.8414 13.6019 28.9995 13.9996 29H25.9996C26.3973 28.9995 26.7786 28.8414 27.0598 28.5602C27.341 28.279 27.4992 27.8977 27.4996 27.5V14H28.2496C28.4485 14 28.6393 13.921 28.78 13.7803C28.9206 13.6397 28.9996 13.4489 28.9996 13.25C28.9996 13.0511 28.9206 12.8603 28.78 12.7197C28.6393 12.579 28.4485 12.5 28.2496 12.5ZM18.5 23.75C18.5 23.9489 18.421 24.1397 18.2803 24.2803C18.1397 24.421 17.9489 24.5 17.75 24.5C17.5511 24.5 17.3603 24.421 17.2197 24.2803C17.079 24.1397 17 23.9489 17 23.75V17.75C17 17.5511 17.079 17.3603 17.2197 17.2197C17.3603 17.079 17.5511 17 17.75 17C17.9489 17 18.1397 17.079 18.2803 17.2197C18.421 17.3603 18.5 17.5511 18.5 17.75V23.75ZM23 23.75C23 23.9489 22.921 24.1397 22.7803 24.2803C22.6397 24.421 22.4489 24.5 22.25 24.5C22.0511 24.5 21.8603 24.421 21.7197 24.2803C21.579 24.1397 21.5 23.9489 21.5 23.75V17.75C21.5 17.5511 21.579 17.3603 21.7197 17.2197C21.8603 17.079 22.0511 17 22.25 17C22.4489 17 22.6397 17.079 22.7803 17.2197C22.921 17.3603 23 17.5511 23 17.75V23.75ZM23 12.5H17V11.75C17.0002 11.5512 17.0793 11.3605 17.2199 11.2199C17.3605 11.0793 17.5512 11.0002 17.75 11H22.25C22.4488 11.0002 22.6395 11.0793 22.7801 11.2199C22.9207 11.3605 22.9998 11.5512 23 11.75V12.5Z" fill="black"/>
</svg>
