<svg width="327" height="460" viewBox="0 0 327 460" fill="none" xmlns="http://www.w3.org/2000/svg">
<rect width="327" height="460" fill="white"/>
<g clip-path="url(#clip0_7239_50376)">
<path d="M149.733 358.122C149.733 358.122 149.733 332.734 149.733 301.418C149.733 270.101 149.733 244.714 149.733 244.714C181.05 244.714 206.437 270.101 206.437 301.418C206.437 332.734 181.05 358.122 149.733 358.122Z" fill="#E3B367"/>
</g>
<path d="M305.704 202L249 258.704L249 202L305.704 202Z" fill="#3D4D41"/>
<path d="M248.816 116.034H277.168C284.997 116.034 291.344 122.381 291.344 130.21V191.914H248.816V116.034Z" fill="#F8C471"/>
<path d="M178 160H235V216L178 160Z" fill="#ACD9B7"/>
<path d="M115.907 60C118.551 60 120.845 61.8272 121.435 64.4045L142.493 156.351C144.526 165.227 137.782 173.691 128.675 173.691L92.8797 173.691L92.8797 60L115.907 60Z" fill="#3D4D41"/>
<g clip-path="url(#clip1_7239_50376)">
<path d="M150.082 99.2951C150.082 99.2951 132.491 116.887 110.79 138.587C89.0901 160.287 71.4986 177.879 71.4986 177.879C49.7983 156.178 49.7983 120.995 71.4986 99.2951C93.1989 77.5948 128.382 77.5948 150.082 99.2951Z" fill="#ACD9B7"/>
</g>
<path d="M53.8973 195.476C53.8973 195.476 65.9458 183.427 80.8084 168.564C95.671 153.702 107.72 141.653 107.72 141.653C122.582 156.516 122.582 180.613 107.72 195.476C92.8569 210.338 68.7599 210.338 53.8973 195.476Z" fill="#F8C471"/>
<path d="M100.688 161.641C102.588 166.401 107.626 169.066 112.433 167.773C117.24 166.48 120.261 161.647 119.517 156.576L100.688 161.641Z" fill="white" stroke="white" stroke-width="2.52394"/>
<path d="M68.6855 125.382H146.667V130.903H68.6855V125.382Z" fill="black"/>
<path d="M100.901 140.342C100.901 140.342 95.4387 134.88 88.7012 128.143C81.9636 121.405 76.5018 115.944 76.5018 115.944C83.2393 109.206 94.163 109.206 100.901 115.944C107.638 122.681 107.638 133.605 100.901 140.342Z" fill="#333333"/>
<path d="M100.901 140.342C94.1632 147.08 83.2395 147.08 76.5019 140.342C69.7644 133.605 69.7644 122.681 76.5019 115.943C76.5019 115.943 81.9638 121.405 88.7013 128.143C95.4389 134.88 100.901 140.342 100.901 140.342Z" fill="black"/>
<path d="M138.861 140.342C138.861 140.342 133.399 134.88 126.661 128.143C119.924 121.405 114.462 115.944 114.462 115.944C121.2 109.206 132.123 109.206 138.861 115.944C145.598 122.681 145.598 133.605 138.861 140.342Z" fill="#333333"/>
<path d="M138.861 140.342C132.124 147.08 121.2 147.08 114.462 140.342C107.725 133.605 107.725 122.681 114.462 115.943C114.462 115.943 119.924 121.405 126.662 128.143C133.399 134.88 138.861 140.342 138.861 140.342Z" fill="black"/>
<rect x="105.98" y="130.171" width="5.24511" height="0.708799" fill="black"/>
<path d="M22.0002 102.812L78.7041 159.516H22.0002L22.0002 102.812Z" fill="#F6BAEC"/>
<path d="M164 117L206 160H164V117Z" fill="#3D4D41"/>
<path d="M121.375 258.888C121.375 258.888 146.763 258.888 178.079 258.888C209.396 258.888 234.783 258.888 234.783 258.888C234.783 290.205 209.396 315.592 178.079 315.592C146.763 315.592 121.375 290.205 121.375 258.888Z" fill="#ACD9B7"/>
<path d="M177.941 259.758C177.941 228.441 177.941 203.054 177.941 203.054C209.258 203.054 234.645 228.441 234.645 259.758C234.645 259.758 209.258 259.758 177.941 259.758Z" fill="#92C9A0"/>
<g clip-path="url(#clip2_7239_50376)">
<path d="M36.0454 358.119C36.0454 358.119 36.0454 332.731 36.0454 301.415C36.0454 270.098 36.0454 244.711 36.0454 244.711C67.3621 244.711 92.7493 270.098 92.7493 301.415C92.7493 332.731 67.3621 358.119 36.0454 358.119Z" fill="#ACD9B7"/>
</g>
<g clip-path="url(#clip3_7239_50376)">
<path d="M149.734 244.712C149.734 244.712 149.734 270.1 149.734 301.416C149.734 332.733 149.734 358.12 149.734 358.12C118.417 358.12 93.0299 332.733 93.0299 301.416C93.0299 270.1 118.417 244.712 149.734 244.712Z" fill="#F8C471"/>
</g>
<path d="M64.5372 301.415H93.0309V372.153V372.153C77.3726 372.153 64.5372 359.46 64.5372 343.801V301.415Z" fill="#3D4D41"/>
<path d="M92.8857 221.178C92.8857 205.52 105.721 192.826 121.379 192.826V192.826V301.131H92.8857V221.178Z" fill="#FCC5F3"/>
<path d="M54.0248 298.615H132.006V304.136H54.0248V298.615Z" fill="black"/>
<path d="M86.2477 313.575C86.2477 313.575 80.7859 308.113 74.0483 301.375C67.3108 294.638 61.849 289.176 61.849 289.176C68.5865 282.438 79.5102 282.438 86.2477 289.176C92.9853 295.913 92.9853 306.837 86.2477 313.575Z" fill="#333333"/>
<path d="M86.2479 313.575C79.5103 320.312 68.5866 320.312 61.8491 313.575C55.1116 306.837 55.1116 295.913 61.8491 289.176C61.8491 289.176 67.311 294.638 74.0485 301.375C80.786 308.113 86.2479 313.575 86.2479 313.575Z" fill="black"/>
<path d="M124.207 313.575C124.207 313.575 118.745 308.113 112.008 301.375C105.27 294.638 99.8082 289.176 99.8082 289.176C106.546 282.438 117.469 282.438 124.207 289.176C130.944 295.913 130.944 306.837 124.207 313.575Z" fill="#333333"/>
<path d="M124.207 313.575C117.47 320.312 106.546 320.312 99.8083 313.575C93.0708 306.837 93.0708 295.913 99.8083 289.176C99.8083 289.176 105.27 294.638 112.008 301.375C118.745 308.113 124.207 313.575 124.207 313.575Z" fill="black"/>
<rect x="91.3123" y="303.397" width="5.24511" height="0.708799" fill="black"/>
<path d="M249 160L249 230L221 230L235 160L249 160Z" fill="#F6BAEC"/>
<path d="M210.13 167.908H288.111V173.429H210.13V167.908Z" fill="black"/>
<path d="M242.347 182.868C242.347 182.868 236.885 177.406 230.147 170.668C223.41 163.931 217.948 158.469 217.948 158.469C224.685 151.731 235.609 151.731 242.347 158.469C249.084 165.206 249.084 176.13 242.347 182.868Z" fill="#333333"/>
<path d="M242.347 182.868C235.609 189.605 224.685 189.605 217.948 182.868C211.21 176.13 211.21 165.206 217.948 158.469C217.948 158.469 223.41 163.931 230.147 170.668C236.885 177.406 242.347 182.868 242.347 182.868Z" fill="black"/>
<path d="M280.298 182.868C280.298 182.868 274.836 177.406 268.099 170.668C261.361 163.931 255.899 158.469 255.899 158.469C262.637 151.731 273.56 151.731 280.298 158.469C287.035 165.206 287.035 176.13 280.298 182.868Z" fill="#333333"/>
<path d="M280.298 182.869C273.56 189.606 262.637 189.606 255.899 182.869C249.162 176.131 249.162 165.207 255.899 158.47C255.899 158.47 261.361 163.932 268.099 170.669C274.836 177.407 280.298 182.869 280.298 182.869Z" fill="black"/>
<rect x="247.409" y="172.695" width="5.24511" height="0.708799" fill="black"/>
<path d="M192.254 315.591L248.958 258.887L248.958 315.591L192.254 315.591Z" fill="#F8C471"/>
<path d="M220.465 343.803L163.761 400.507L220.465 400.507L220.465 343.803Z" fill="#3D4D41"/>
<path d="M220.465 315.45H248.675V343.802C248.675 359.382 236.045 372.012 220.465 372.012V372.012V315.45Z" fill="#ACD9B7"/>
<path d="M180.204 312.791H258.186V318.312H180.204V312.791Z" fill="black"/>
<path d="M212.422 327.749C212.422 327.749 206.96 322.287 200.222 315.549C193.485 308.812 188.023 303.35 188.023 303.35C194.761 296.612 205.684 296.612 212.422 303.35C219.159 310.087 219.159 321.011 212.422 327.749Z" fill="#333333"/>
<path d="M212.422 327.748C205.684 334.486 194.761 334.486 188.023 327.748C181.286 321.011 181.286 310.087 188.023 303.35C188.023 303.35 193.485 308.811 200.223 315.549C206.96 322.287 212.422 327.748 212.422 327.748Z" fill="black"/>
<path d="M199.339 339.408C199.339 327.743 208.796 318.286 220.462 318.286V318.286L220.462 358.121L199.339 358.121L199.339 339.408Z" fill="#FCC5F3"/>
<path d="M250.373 327.749C250.373 327.749 244.911 322.287 238.174 315.549C231.436 308.812 225.974 303.35 225.974 303.35C232.712 296.612 243.635 296.612 250.373 303.35C257.111 310.087 257.111 321.011 250.373 327.749Z" fill="#333333"/>
<path d="M250.373 327.749C243.636 334.487 232.712 334.487 225.974 327.749C219.237 321.012 219.237 310.088 225.974 303.351C225.974 303.351 231.436 308.812 238.174 315.55C244.911 322.288 250.373 327.749 250.373 327.749Z" fill="black"/>
<rect x="217.489" y="317.579" width="5.24511" height="0.708799" fill="black"/>
<path d="M93.8982 341.895C92.7769 345.886 88.9972 348.503 85 347.973C81.0029 347.442 78.037 343.929 77.9958 339.784L93.8982 341.895Z" fill="white" stroke="white" stroke-width="2.52394"/>
<path d="M239.367 213.217C240.523 217.442 244.511 220.224 248.734 219.663C252.957 219.102 256.082 215.377 256.096 210.996L239.367 213.217Z" fill="white" stroke="white" stroke-width="2.52394"/>
<path d="M192.44 369.525C191.621 374.584 194.57 379.461 199.357 380.825C204.145 382.19 209.222 379.6 211.192 374.869L192.44 369.525Z" fill="white" stroke="white" stroke-width="2.52394"/>
<defs>
<clipPath id="clip0_7239_50376">
<rect width="113.408" height="56.7039" fill="white" transform="translate(206.425 244.714) rotate(90)"/>
</clipPath>
<clipPath id="clip1_7239_50376">
<rect width="111.134" height="55.567" fill="white" transform="translate(32.2067 138.584) rotate(-45)"/>
</clipPath>
<clipPath id="clip2_7239_50376">
<rect width="113.408" height="56.7039" fill="white" transform="translate(92.7476 244.709) rotate(90)"/>
</clipPath>
<clipPath id="clip3_7239_50376">
<rect width="113.408" height="56.7039" fill="white" transform="translate(93.032 358.117) rotate(-90)"/>
</clipPath>
</defs>
</svg>
