<svg width="48" height="48" viewBox="0 0 48 48" fill="none" xmlns="http://www.w3.org/2000/svg">
<rect width="48" height="48" rx="12" fill="white"/>
<g clip-path="url(#clip0_156_2098)">
<path d="M6.3125 11.5963L25.8165 31.1003L6.3125 31.1003L6.3125 11.5963Z" fill="#F8C471"/>
<path d="M10.4521 31.1001H24.2981V44.9001L10.4521 31.1001Z" fill="#ACD9B7"/>
<path d="M31.8651 17.2469C29.3373 12.8686 30.8374 7.27014 35.2157 4.74234L39.8157 12.7098C42.3435 17.0881 40.8434 22.6866 36.4651 25.2144L31.8651 17.2469Z" fill="#ACD9B7"/>
<path d="M20.0665 15.124C22.5943 19.5023 28.1928 21.0024 32.5711 18.4746L27.9711 10.5072C25.4433 6.12891 19.8448 4.6288 15.4665 7.15661L20.0665 15.124Z" fill="#3D4D41"/>
<path d="M13.3965 24.3029H38.7009V26.0944H13.3965V24.3029Z" fill="black"/>
<path d="M23.8466 29.1575C23.8466 29.1575 22.0742 27.3852 19.8879 25.1989C17.7017 23.0126 15.9293 21.2403 15.9293 21.2403C18.1156 19.054 21.6603 19.054 23.8466 21.2403C26.0328 23.4266 26.0328 26.9712 23.8466 29.1575Z" fill="#333333"/>
<path d="M23.8462 29.1574C21.6599 31.3437 18.1152 31.3437 15.929 29.1574C13.7427 26.9711 13.7427 23.4265 15.929 21.2402C15.929 21.2402 17.7013 23.0125 19.8876 25.1988C22.0738 27.3851 23.8462 29.1574 23.8462 29.1574Z" fill="black"/>
<path d="M36.1637 29.1582C36.1637 29.1582 34.3914 27.3859 32.2051 25.1996C30.0188 23.0134 28.2465 21.241 28.2465 21.241C30.4327 19.0547 33.9774 19.0547 36.1637 21.241C38.35 23.4273 38.35 26.972 36.1637 29.1582Z" fill="#333333"/>
<path d="M36.1643 29.1576C33.978 31.3439 30.4333 31.3439 28.2471 29.1576C26.0608 26.9714 26.0608 23.4267 28.2471 21.2404C28.2471 21.2404 30.0194 23.0127 32.2057 25.199C34.392 27.3853 36.1643 29.1576 36.1643 29.1576Z" fill="black"/>
<rect x="25.4943" y="25.8562" width="1.702" height="0.23" fill="black"/>
<path d="M24.2988 29.5825L33.5448 38.8285H24.2988V29.5825Z" fill="#FCC5F3"/>
</g>
<defs>
<clipPath id="clip0_156_2098">
<rect width="38" height="41" fill="white" transform="translate(5 4)"/>
</clipPath>
</defs>
</svg>
