<svg width="174" height="189" viewBox="0 0 174 189" fill="none" xmlns="http://www.w3.org/2000/svg">
<path opacity="0.05" fill-rule="evenodd" clip-rule="evenodd" d="M7.61576 188.792C2.34202 188.792 -0.824839 182.937 2.06121 178.523L56.8436 94.7383C58.3169 92.4851 58.283 89.5651 56.7578 87.3467L4.37507 11.1536C1.34778 6.75028 4.50026 0.757341 9.84383 0.757341H40.4755L83.7234 0.757324H91.2447L134.493 0.757341H165.124C170.468 0.757341 173.62 6.75028 170.593 11.1536L118.21 87.3467C116.685 89.5651 116.651 92.4851 118.124 94.7383L172.907 178.523C175.793 182.937 172.626 188.792 167.352 188.792H136.373L91.2447 188.792H83.7234L38.5951 188.792H7.61576ZM53.0909 143H85.4043H89.1966L111.95 143H121.51C126.779 143 129.947 137.155 127.07 132.74L103.943 97.252C102.477 95.0028 102.511 92.092 104.029 89.8774L125.69 58.2648C128.708 53.8607 125.554 47.877 120.215 47.877H111.002L89.1966 47.877H85.4043L63.5987 47.877H54.3855C49.0466 47.877 45.8931 53.8607 48.9109 58.2648L70.5723 89.8774C72.0899 92.092 72.1236 95.0028 70.6578 97.252L47.5308 132.74C44.6539 137.155 47.8217 143 53.0909 143Z" fill="#C3C3FF"/>
</svg>
