<svg width="32" height="32" viewBox="0 0 32 32" fill="none" xmlns="http://www.w3.org/2000/svg">
<path d="M15.9994 2C13.0831 2.00346 10.2872 3.1635 8.2251 5.22565C6.16295 7.2878 5.00291 10.0837 4.99945 13C4.99945 22.4121 14.9994 29.5215 15.4252 29.8193C15.5936 29.9369 15.7941 30 15.9994 30C16.2048 30 16.4053 29.9369 16.5737 29.8193C16.9994 29.5215 26.9994 22.4121 26.9994 13C26.996 10.0837 25.836 7.2878 23.7738 5.22565C21.7117 3.1635 18.9158 2.00346 15.9994 2ZM16.0002 9.00036C16.7913 9.00036 17.5647 9.23496 18.2225 9.67448C18.8803 10.114 19.393 10.7387 19.6957 11.4696C19.9985 12.2005 20.0777 13.0048 19.9233 13.7807C19.769 14.5566 19.388 15.2694 18.8286 15.8288C18.2692 16.3882 17.5565 16.7692 16.7805 16.9235C16.0046 17.0778 15.2004 16.9986 14.4694 16.6959C13.7385 16.3931 13.1138 15.8804 12.6743 15.2226C12.2348 14.5648 12.0002 13.7915 12.0002 13.0004C12.0002 12.4751 12.1036 11.9549 12.3046 11.4696C12.5056 10.9843 12.8003 10.5433 13.1717 10.1719C13.5432 9.80046 13.9841 9.50583 14.4694 9.30481C14.9547 9.1038 15.4749 9.00035 16.0002 9.00036Z" fill="#808080"/>
</svg>
