<svg width="57" height="57" viewBox="0 0 57 57" fill="none" xmlns="http://www.w3.org/2000/svg">
<path opacity="0.3" fill-rule="evenodd" clip-rule="evenodd" d="M28.5034 0C20.0715 0 13.2041 6.90793 13.2041 15.3994C13.2041 19.5126 14.398 24.6572 16.8675 28.9314C17.5998 30.1988 18.4607 31.3948 19.4447 32.452C19.3655 33.0662 19.2422 33.5568 19.1047 33.8677C18.9392 34.2416 18.8263 34.3154 18.7157 34.358C17.1705 34.9453 13.003 35.2843 9.06988 36.5224C5.13357 37.7616 1.0966 40.2073 0.0289741 45.2042C-0.0188911 45.4283 -0.00729417 45.6611 0.0625973 45.8792C0.132489 46.0974 0.258208 46.2931 0.4271 46.4467C15.8987 60.5178 41.1013 60.5178 56.5729 46.4467C56.7418 46.2931 56.8675 46.0974 56.9374 45.8792C57.0073 45.6611 57.0189 45.4283 56.971 45.2042C55.9034 40.2073 51.8668 37.7616 47.9313 36.5224C43.9974 35.2838 39.8288 34.9445 38.2896 34.3576C38.2889 34.3574 38.2887 34.3572 38.2882 34.357C38.2882 34.3569 38.2876 34.3568 38.2876 34.3568C38.0803 34.2769 37.9551 34.174 37.7826 33.8359C37.6437 33.5634 37.5152 33.1394 37.424 32.5953C38.4637 31.5036 39.3684 30.256 40.1335 28.9312C42.6021 24.6571 43.7961 19.5126 43.7961 15.3994C43.7961 6.90866 36.9354 3.98095e-05 28.5034 3.98095e-05V0Z" fill="black"/>
</svg>
