<svg width="62" height="67" viewBox="0 0 62 67" fill="none" xmlns="http://www.w3.org/2000/svg">
<path opacity="0.1" fill-rule="evenodd" clip-rule="evenodd" d="M3.31297 66.9364C1.45281 66.9364 0.335797 64.8715 1.35377 63.3146L20.6767 33.7619C21.1963 32.9671 21.1844 31.9372 20.6464 31.1547L2.16991 4.27978C1.10213 2.72664 2.21407 0.612799 4.09886 0.612799H14.9033L30.1577 0.612793H32.8107L48.0651 0.612799H58.8695C60.7543 0.612799 61.8663 2.72663 60.7985 4.27978L42.322 31.1547C41.784 31.9372 41.7721 32.9671 42.2917 33.7619L61.6146 63.3146C62.6326 64.8715 61.5156 66.9364 59.6554 66.9364H48.7283L32.8107 66.9364H30.1577L14.2401 66.9364H3.31297ZM19.353 50.7849H30.7506H32.0882L40.114 50.7849H43.4858C45.3443 50.7849 46.4617 48.7231 45.4469 47.166L37.2896 34.6485C36.7726 33.8552 36.7845 32.8285 37.3198 32.0473L44.9602 20.8969C46.0247 19.3435 44.9124 17.2329 43.0292 17.2329H39.7795L32.0882 17.2329H30.7506L23.0593 17.2329H19.8096C17.9265 17.2329 16.8142 19.3435 17.8786 20.8969L25.5191 32.0473C26.0543 32.8285 26.0662 33.8552 25.5492 34.6485L17.3918 47.166C16.3771 48.7231 17.4944 50.7849 19.353 50.7849Z" fill="#C3C3FF"/>
</svg>
