<svg width="34" height="37" viewBox="0 0 34 37" fill="none" xmlns="http://www.w3.org/2000/svg">
<path fill-rule="evenodd" clip-rule="evenodd" d="M2.23726 36.7222C1.23051 36.7222 0.62596 35.6046 1.1769 34.762L11.6348 18.7675C11.9161 18.3374 11.9096 17.78 11.6184 17.3565L1.61862 2.8113C1.04071 1.97071 1.64252 0.826663 2.6626 0.826663H8.51016L16.7661 0.82666H18.202L26.4579 0.826663H32.3055C33.3256 0.826663 33.9274 1.97071 33.3495 2.8113L23.3497 17.3565C23.0585 17.78 23.052 18.3374 23.3333 18.7675L33.7912 34.762C34.3421 35.6046 33.7376 36.7222 32.7308 36.7222H26.8169L18.202 36.7222H16.7661L8.1512 36.7222H2.23726ZM10.9183 27.9805H17.0869H17.8109L22.1545 27.9805H23.9794C24.9853 27.9805 25.59 26.8647 25.0408 26.0219L20.6259 19.2472C20.3461 18.8179 20.3526 18.2622 20.6423 17.8394L24.7774 11.8046C25.3535 10.9639 24.7515 9.82159 23.7323 9.82159H21.9735L17.8109 9.82159H17.0869L12.9242 9.82159H11.1654C10.1463 9.82159 9.54426 10.9639 10.1204 11.8046L14.2555 17.8394C14.5452 18.2622 14.5516 18.8179 14.2718 19.2472L9.85689 26.0219C9.3077 26.8647 9.91242 27.9805 10.9183 27.9805Z" fill="#C3C3FF"/>
</svg>
