<svg width="20" height="20" viewBox="0 0 20 20" fill="none" xmlns="http://www.w3.org/2000/svg">
<path d="M2.50098 5.625H4.30566C5.10049 5.62597 5.88363 5.81642 6.59014 6.18055C7.29665 6.54467 7.90617 7.07198 8.36816 7.71875L11.6338 12.2812C12.0958 12.928 12.7053 13.4553 13.4118 13.8195C14.1183 14.1836 14.9015 14.374 15.6963 14.375H18.126" stroke="black" stroke-width="2" stroke-linecap="round" stroke-linejoin="round"/>
<path d="M16.25 3.75L18.125 5.625L16.25 7.5" stroke="black" stroke-width="2" stroke-linecap="round" stroke-linejoin="round"/>
<path d="M16.25 12.5L18.125 14.375L16.25 16.25" stroke="black" stroke-width="2" stroke-linecap="round" stroke-linejoin="round"/>
<path d="M12.001 7.5L12.0947 7.36719C12.5567 6.72042 12.7053 6.54467 13.4118 6.18055C14.1183 5.81642 14.9015 5.62597 15.6963 5.625H18.126" stroke="black" stroke-width="2" stroke-linecap="round" stroke-linejoin="round"/>
<path d="M2.50098 14.375H4.30566C5.10049 14.374 5.88363 14.1836 6.59014 13.8195C7.29665 13.4553 7.44524 13.2796 7.90723 12.6328L8.00098 12.5" stroke="black" stroke-width="2" stroke-linecap="round" stroke-linejoin="round"/>
</svg>
