<svg width="132" height="176" viewBox="0 0 132 176" fill="none" xmlns="http://www.w3.org/2000/svg">
<g clip-path="url(#clip0_5706_23779)">
<path d="M0 44.0342H65.9656V110.017H0V44.0342Z" fill="#FCCD6C"/>
<path d="M66 110V176H0C0 139.525 29.5245 110 66 110Z" fill="#3D4D41"/>
<path d="M132 110.017L65.9656 44.0342H131.931V110.017H132Z" fill="#ACD9B7"/>
<path d="M65.9656 44.0342L131.931 110.017H65.9656V44.0342Z" fill="#3D4D41"/>
<path d="M132 110.018L66.0344 176V110.018H132Z" fill="#28332B"/>
<path d="M0 44.0344C0 19.6779 19.6727 0 44.0229 0H132C132 24.2877 112.327 44.0344 87.9771 44.0344H0Z" fill="#3D4D41"/>
<path d="M65.9656 132.034C65.9656 144.212 65.9656 154.051 65.9656 154.051C53.7905 154.051 43.9541 144.212 43.9541 132.034C44.0229 132.034 53.8593 132.034 65.9656 132.034Z" fill="white"/>
<path d="M8.11673 71.7627H129.111V80.3632H8.11673V71.7627Z" fill="black"/>
<path d="M58.124 95.0182C58.124 95.0182 49.6634 86.5553 39.2079 76.0971C28.7525 65.5702 20.2918 57.1073 20.2918 57.1073C30.7473 46.6491 47.6686 46.6491 58.124 57.1073C68.5795 67.5655 68.5795 84.56 58.124 95.0182Z" fill="#333333"/>
<path d="M58.124 95.0179C47.6686 105.476 30.7473 105.476 20.2918 95.0179C9.83638 84.5597 9.83638 67.634 20.2918 57.1758C20.2918 57.1758 28.7525 65.6386 39.2079 76.0968C49.6634 86.4862 58.124 95.0179 58.124 95.0179Z" fill="black"/>
<path d="M117.005 95.0182C117.005 95.0182 108.544 86.5553 98.0886 76.0971C87.6331 65.5702 79.1725 57.1073 79.1725 57.1073C89.6279 46.6491 106.549 46.6491 117.005 57.1073C127.46 67.5655 127.46 84.56 117.005 95.0182Z" fill="#333333"/>
<path d="M117.005 95.0179C106.549 105.476 89.6279 105.476 79.1725 95.0179C68.717 84.5597 68.717 67.634 79.1725 57.1758C79.1725 57.1758 87.6332 65.6386 98.0886 76.0968C108.544 86.4862 117.005 95.0179 117.005 95.0179Z" fill="black"/>
<path d="M65.9656 132.034C65.9656 114.902 65.9656 80.3623 65.9656 80.3623C83.0933 80.3623 96.988 94.2607 96.988 111.324V132.034H65.9656Z" fill="#FCC5F3"/>
<path d="M74.0823 79.1934H65.9656V80.2942H74.0823V79.1934Z" fill="black"/>
</g>
<defs>
<clipPath id="clip0_5706_23779">
<rect width="132" height="176" fill="white"/>
</clipPath>
</defs>
</svg>
