<svg width="311" height="315" viewBox="0 0 311 315" fill="none" xmlns="http://www.w3.org/2000/svg">
<rect width="311" height="315" fill="white"/>
<path d="M246.701 142.448L64.8551 142.448L155.778 63.9998L246.701 142.448Z" fill="#FCCD6C"/>
<path d="M65.3105 142.448L247.156 142.447L156.233 197.562L65.3105 142.448Z" fill="#EEB338"/>
<path d="M89.1484 245.303L228.8 105.652L228.8 245.303L89.1484 245.303Z" fill="black"/>
<path d="M228.8 105.651L89.148 245.303L89.148 105.651L228.8 105.651Z" fill="black"/>
<mask id="mask0_5149_19739" style="mask-type:alpha" maskUnits="userSpaceOnUse" x="89" y="105" width="140" height="141">
<path d="M228.8 105.652L89.148 245.303L89.148 105.652L228.8 105.652Z" fill="url(#paint0_linear_5149_19739)"/>
</mask>
<g mask="url(#mask0_5149_19739)">
</g>
<path d="M168.694 150.427L144.241 125.973L168.694 125.973L168.694 150.427Z" fill="#ACD9B7"/>
<path d="M144.24 125.973L168.694 150.426L144.24 150.426L144.24 125.973Z" fill="#88C797"/>
<path d="M202.317 150.427C195.492 150.427 177.864 150.427 177.864 150.427C177.864 143.674 183.397 138.2 190.222 138.2L202.317 138.2L202.317 150.427Z" fill="#FBA5EC"/>
<path d="M177.864 125.973C184.689 125.973 202.317 125.973 202.317 125.973C202.317 132.726 196.784 138.2 189.959 138.2L177.864 138.2L177.864 125.973Z" fill="#FCC5F3"/>
<path d="M122.844 150.427C129.596 150.427 135.071 144.953 135.071 138.2L110.617 138.2C110.617 144.953 116.091 150.427 122.844 150.427Z" fill="#FCCD6C"/>
<path d="M122.844 125.973C116.092 125.973 110.617 131.572 110.617 138.2L135.071 138.2C135.071 131.572 129.597 125.973 122.844 125.973Z" fill="#EEB338"/>
<path d="M65.3896 252.629L65.3896 142.4L156.312 197.514L65.3896 252.629Z" fill="#82C492"/>
<path d="M246.701 252.305L64.8551 252.305L155.778 197.19L246.701 252.305Z" fill="#EEB338"/>
<path d="M247.077 142.4L247.077 252.629L156.154 197.514L247.077 142.4Z" fill="#FCCD6C"/>
<path d="M65.3882 142.4L65.3882 252.629L156.311 197.514L65.3882 142.4Z" fill="#FCCD6C"/>
<defs>
<linearGradient id="paint0_linear_5149_19739" x1="89.148" y1="105.652" x2="89.148" y2="245.303" gradientUnits="userSpaceOnUse">
<stop stop-color="#ACD9B7"/>
<stop offset="1" stop-color="#ACD9B7" stop-opacity="0"/>
</linearGradient>
</defs>
</svg>
