<svg width="16" height="16" viewBox="0 0 16 16" fill="none" xmlns="http://www.w3.org/2000/svg">
<path fill-rule="evenodd" clip-rule="evenodd" d="M0 8.00004C0 3.76586 3.43248 0.333374 7.66667 0.333374C11.9009 0.333374 15.3333 3.76586 15.3333 8.00004C15.3333 12.2342 11.9009 15.6667 7.66667 15.6667C3.43248 15.6667 0 12.2342 0 8.00004ZM7.66667 2.33337C4.53705 2.33337 2 4.87043 2 8.00004C2 11.1297 4.53705 13.6667 7.66667 13.6667C10.7963 13.6667 13.3333 11.1297 13.3333 8.00004C13.3333 4.87043 10.7963 2.33337 7.66667 2.33337ZM7.66667 7.00004C8.21895 7.00004 8.66667 7.44776 8.66667 8.00004V10.6667C8.66667 11.219 8.21895 11.6667 7.66667 11.6667C7.11438 11.6667 6.66667 11.219 6.66667 10.6667V8.00004C6.66667 7.44776 7.11438 7.00004 7.66667 7.00004ZM7.66669 5.99939C8.21897 5.99939 8.66669 5.55167 8.66669 4.99939C8.66669 4.4471 8.21897 3.99939 7.66669 3.99939C7.1144 3.99939 6.66669 4.4471 6.66669 4.99939C6.66669 5.55167 7.1144 5.99939 7.66669 5.99939Z" fill="#AFAFAF"/>
</svg>
