<svg width="375" height="424" viewBox="0 0 375 424" fill="none" xmlns="http://www.w3.org/2000/svg">
<path opacity="0.02" fill-rule="evenodd" clip-rule="evenodd" d="M7.91402 423.156C-3.94308 423.156 -11.0632 409.993 -4.57443 400.069L118.594 211.693C121.907 206.627 121.831 200.062 118.402 195.074L0.62788 23.7673C-6.17846 13.8672 0.909349 0.393104 12.9235 0.393104H81.7935L179.029 0.393066H195.939L293.175 0.393104H362.045C374.059 0.393104 381.147 13.8672 374.34 23.7673L256.567 195.074C253.138 200.062 253.062 206.627 256.374 211.693L379.543 400.069C386.032 409.993 378.911 423.156 367.054 423.156H297.402L195.939 423.156H179.029L77.5659 423.156H7.91402ZM110.157 320.202H182.808H191.335L242.492 320.202H263.985C275.832 320.202 282.954 307.059 276.486 297.134L224.489 217.345C221.194 212.288 221.27 205.743 224.682 200.764L273.384 129.689C280.169 119.787 273.079 106.334 261.075 106.334H240.361L191.335 106.333H182.808L133.782 106.334H113.068C101.064 106.334 93.974 119.787 100.759 129.689L149.461 200.764C152.873 205.743 152.949 212.288 149.653 217.345L97.6561 297.134C91.188 307.059 98.3101 320.202 110.157 320.202Z" fill="#C3C3FF"/>
</svg>
