<svg width="41" height="31" viewBox="0 0 41 31" fill="none" xmlns="http://www.w3.org/2000/svg">
<path d="M35.1138 18.1329C35.0807 17.8397 34.7851 17.6198 34.4871 17.6884C34.1939 17.7215 33.974 18.0171 34.0426 18.3151C34.0545 18.4972 34.6247 22.6166 30.6095 26.1971C30.4038 26.3863 30.3566 26.7411 30.5458 26.9468C30.6427 27.0319 30.7397 27.117 30.8816 27.1359C31.0235 27.1549 31.1748 27.1028 31.2954 27.0106C35.8024 22.9901 35.1257 18.315 35.1138 18.1329Z" fill="#C3C3FF" stroke="#C3C3FF"/>
<path d="M39.032 17.9082C38.9989 17.615 38.6985 17.4306 38.4053 17.4637C38.1121 17.4968 37.8922 17.7924 37.9608 18.0904C37.9513 18.1613 38.8267 24.0543 33.1847 29.0065C32.979 29.1957 32.9318 29.5505 33.121 29.7562C33.2179 29.8413 33.3149 29.9264 33.4568 29.9453C33.5987 29.9642 33.75 29.9122 33.8706 29.82C39.9642 24.4586 39.0699 18.166 39.032 17.9082Z" fill="#C3C3FF" stroke="#C3C3FF"/>
<path d="M12.6534 6.30862C12.9254 6.16435 13.0034 5.84983 12.8591 5.57789C12.7148 5.30595 12.4003 5.22794 12.1284 5.37221C11.9368 5.45499 7.61184 7.83901 6.93124 14.03C6.89343 14.3138 7.10865 14.5952 7.39242 14.633C7.6762 14.6708 7.95759 14.4556 7.9954 14.1718C8.63584 8.55309 12.4974 6.39613 12.6534 6.30862Z" fill="#C3C3FF" stroke="#C3C3FF"/>
<path d="M10.1162 2.75688C10.3882 2.61261 10.4662 2.29809 10.3219 2.02615C10.1777 1.75421 9.86313 1.6762 9.59119 1.82047C9.35945 1.93399 3.55417 5.1316 2.6207 13.4912C2.58289 13.7749 2.7981 14.0563 3.08188 14.0941C3.36565 14.132 3.64705 13.9167 3.68486 13.633C4.5427 5.84096 10.0406 2.7829 10.1162 2.75688Z" fill="#C3C3FF" stroke="#C3C3FF"/>
<path d="M30.9074 13.9144C31.1297 13.3303 31.1036 12.7131 30.8198 12.1338C30.5714 11.5591 30.0866 11.1335 29.5025 10.9113C29.0201 10.7387 28.4833 10.7033 27.9891 10.8901L28.5021 9.4783C28.9513 8.27459 28.3364 6.92908 27.1327 6.47986C26.6148 6.30254 26.1087 6.30731 25.6192 6.45869L25.6736 6.32153C25.8958 5.73742 25.8698 5.12021 25.586 4.54086C25.3376 3.96624 24.8528 3.54062 24.2687 3.31837C23.6846 3.09613 23.0674 3.12219 22.488 3.406C21.9134 3.65435 21.4878 4.13916 21.2655 4.72327L21.0291 5.41381C20.7619 4.98107 20.374 4.64057 19.8561 4.46325C18.6524 4.01403 17.3069 4.62898 16.8529 5.86815L15.6046 9.27589C14.4316 8.86687 13.1169 9.52201 12.6724 10.6902L10.2892 17.1959C8.57743 21.9138 10.9852 27.1445 15.6983 28.8917L15.7338 28.8964C18.004 29.7405 20.5083 29.641 22.7051 28.5979C24.9019 27.5549 26.5855 25.7576 27.4343 23.4518L30.9074 13.9144ZM26.5758 23.1208C25.0319 27.3917 20.3002 29.5771 16.0293 28.0333L15.9938 28.0285C11.7631 26.4539 9.57299 21.7576 11.1169 17.4867L13.5001 10.981C13.7814 10.2243 14.5878 9.86243 15.3445 10.1438C15.4462 10.1934 15.5172 10.2029 15.5834 10.2478C15.8175 10.3873 16.0067 10.593 16.1155 10.8602C16.2858 11.2079 16.3047 11.6075 16.1511 11.948L14.6379 16.2591C14.6379 16.2591 14.6379 16.2591 14.6332 16.2946C14.6332 16.2946 14.6332 16.2946 14.6285 16.3301L14.6237 16.3656C14.619 16.401 14.6143 16.4365 14.6143 16.4365L14.6096 16.472L14.6048 16.5074L14.6001 16.5429C14.6001 16.5429 14.5954 16.5784 14.6309 16.5831C14.6309 16.5831 14.6261 16.6186 14.6616 16.6233L14.6923 16.6635L14.7231 16.7037C14.7231 16.7037 14.7231 16.7037 14.7538 16.7439C16.2958 18.1769 16.828 20.4139 16.1376 22.3436C16.0691 22.5872 16.1779 22.8544 16.4215 22.9229C16.665 22.9915 16.9323 22.8827 17.0008 22.6391C17.7952 20.4706 17.2298 17.9403 15.6099 16.2804L17.0899 12.2176C17.3121 11.6334 17.2861 11.0162 17.0023 10.4369C16.8627 10.1295 16.6475 9.84809 16.4228 9.63764L17.7256 6.09274C18.0069 5.33599 18.8133 4.97412 19.57 5.25547C20.2913 5.5321 20.6887 6.34319 20.4073 7.09994L18.0241 13.6056C17.9201 13.8445 18.0643 14.1164 18.3079 14.185C18.5515 14.2535 18.8187 14.1447 18.8873 13.9011L22.1689 4.98806C22.2871 4.64279 22.578 4.35664 22.9256 4.18635C23.2732 4.01606 23.6728 3.99711 24.0134 4.15079C24.3586 4.26901 24.6448 4.55985 24.8151 4.90746C24.9854 5.25507 25.0043 5.65472 24.8506 5.99526L21.2971 15.5941C21.1931 15.833 21.3373 16.1049 21.5809 16.1735C21.8245 16.2421 22.0917 16.1333 22.1603 15.8897L25.0329 8.14955C25.3142 7.3928 26.1206 7.03093 26.8773 7.31228C27.6341 7.59364 27.996 8.4 27.7146 9.15675L26.575 12.2902L24.1918 18.7958C24.0878 19.0347 24.2368 19.2711 24.4756 19.3752C24.7192 19.4437 24.9864 19.3349 25.055 19.0914L27.3578 12.6472C27.476 12.3019 27.7669 12.0158 28.1145 11.8455C28.4621 11.6752 28.8617 11.6562 29.2023 11.8099C29.5475 11.9281 29.8337 12.219 30.004 12.5666C30.1743 12.9142 30.1932 13.3138 30.0395 13.6544L26.5758 23.1208Z" fill="black" stroke="#C3C3FF"/>
<path d="M34.1138 17.1329C34.0807 16.8397 33.7851 16.6198 33.4871 16.6884C33.1939 16.7215 32.974 17.0171 33.0426 17.3151C33.0545 17.4972 33.6247 21.6166 29.6095 25.1971C29.4038 25.3863 29.3566 25.7411 29.5458 25.9468C29.6427 26.0319 29.7397 26.117 29.8816 26.1359C30.0235 26.1549 30.1748 26.1028 30.2954 26.0106C34.8024 21.9901 34.1257 17.315 34.1138 17.1329Z" fill="#2C2C3E" stroke="#2C2C3E"/>
<path d="M38.032 16.9082C37.9989 16.615 37.6985 16.4306 37.4053 16.4637C37.1121 16.4968 36.8922 16.7924 36.9608 17.0904C36.9513 17.1613 37.8267 23.0543 32.1847 28.0065C31.979 28.1957 31.9318 28.5505 32.121 28.7562C32.2179 28.8413 32.3149 28.9264 32.4568 28.9453C32.5987 28.9642 32.75 28.9122 32.8706 28.82C38.9642 23.4586 38.0699 17.166 38.032 16.9082Z" fill="#2C2C3E" stroke="#2C2C3E"/>
<path d="M11.6534 5.30862C11.9254 5.16435 12.0034 4.84983 11.8591 4.57789C11.7148 4.30595 11.4003 4.22794 11.1284 4.37221C10.9368 4.45499 6.61184 6.83901 5.93124 13.03C5.89343 13.3138 6.10865 13.5952 6.39242 13.633C6.6762 13.6708 6.95759 13.4556 6.9954 13.1718C7.63584 7.55309 11.4974 5.39613 11.6534 5.30862Z" fill="#2C2C3E" stroke="#2C2C3E"/>
<path d="M9.11624 1.75688C9.38818 1.61261 9.46619 1.29809 9.32192 1.02615C9.17765 0.754211 8.86313 0.676196 8.59119 0.820468C8.35945 0.933994 2.55417 4.1316 1.6207 12.4912C1.58289 12.7749 1.7981 13.0563 2.08188 13.0941C2.36565 13.132 2.64705 12.9167 2.68486 12.633C3.5427 4.84096 9.04057 1.7829 9.11624 1.75688Z" fill="#2C2C3E" stroke="#2C2C3E"/>
<path d="M29.9074 12.9144C30.1297 12.3303 30.1036 11.7131 29.8198 11.1338C29.5714 10.5591 29.0866 10.1335 28.5025 9.91128C28.0201 9.73869 27.4833 9.70325 26.9891 9.89011L27.5021 8.4783C27.9513 7.27459 27.3364 5.92908 26.1327 5.47986C25.6148 5.30254 25.1087 5.30731 24.6192 5.45869L24.6736 5.32153C24.8958 4.73742 24.8698 4.12021 24.586 3.54086C24.3376 2.96624 23.8528 2.54062 23.2687 2.31837C22.6846 2.09613 22.0674 2.12219 21.488 2.406C20.9134 2.65435 20.4878 3.13916 20.2655 3.72327L20.0291 4.41381C19.7619 3.98107 19.374 3.64057 18.8561 3.46325C17.6524 3.01403 16.3069 3.62898 15.8529 4.86815L14.6046 8.27589C13.4316 7.86687 12.1169 8.52201 11.6724 9.69024L9.28918 16.1959C7.57743 20.9138 9.98516 26.1445 14.6983 27.8917L14.7338 27.8964C17.004 28.7405 19.5083 28.641 21.7051 27.5979C23.9019 26.5549 25.5855 24.7576 26.4343 22.4518L29.9074 12.9144ZM25.5758 22.1208C24.0319 26.3917 19.3002 28.5771 15.0293 27.0333L14.9938 27.0285C10.7631 25.4539 8.57299 20.7576 10.1169 16.4867L12.5001 9.98105C12.7814 9.2243 13.5878 8.86243 14.3445 9.14378C14.4462 9.19343 14.5172 9.20289 14.5834 9.24781C14.8175 9.38732 15.0067 9.59304 15.1155 9.86025C15.2858 10.2079 15.3047 10.6075 15.1511 10.948L13.6379 15.2591C13.6379 15.2591 13.6379 15.2591 13.6332 15.2946C13.6332 15.2946 13.6332 15.2946 13.6285 15.3301L13.6237 15.3656C13.619 15.401 13.6143 15.4365 13.6143 15.4365L13.6096 15.472L13.6048 15.5074L13.6001 15.5429C13.6001 15.5429 13.5954 15.5784 13.6309 15.5831C13.6309 15.5831 13.6261 15.6186 13.6616 15.6233L13.6923 15.6635L13.7231 15.7037C13.7231 15.7037 13.7231 15.7037 13.7538 15.7439C15.2958 17.1769 15.828 19.4139 15.1376 21.3436C15.0691 21.5872 15.1779 21.8544 15.4215 21.9229C15.665 21.9915 15.9323 21.8827 16.0008 21.6391C16.7952 19.4706 16.2298 16.9403 14.6099 15.2804L16.0899 11.2176C16.3121 10.6334 16.2861 10.0162 16.0023 9.43689C15.8627 9.12948 15.6475 8.84809 15.4228 8.63764L16.7256 5.09274C17.0069 4.33599 17.8133 3.97412 18.57 4.25547C19.2913 4.5321 19.6887 5.34319 19.4073 6.09994L17.0241 12.6056C16.9201 12.8445 17.0643 13.1164 17.3079 13.185C17.5515 13.2535 17.8187 13.1447 17.8873 12.9011L21.1689 3.98806C21.2871 3.64279 21.578 3.35664 21.9256 3.18635C22.2732 3.01606 22.6728 2.99711 23.0134 3.15079C23.3586 3.26901 23.6448 3.55985 23.8151 3.90746C23.9854 4.25507 24.0043 4.65472 23.8506 4.99526L20.2971 14.5941C20.1931 14.833 20.3373 15.1049 20.5809 15.1735C20.8245 15.2421 21.0917 15.1333 21.1603 14.8897L24.0329 7.14955C24.3142 6.3928 25.1206 6.03093 25.8773 6.31228C26.6341 6.59364 26.996 7.4 26.7146 8.15675L25.575 11.2902L23.1918 17.7958C23.0878 18.0347 23.2368 18.2711 23.4756 18.3752C23.7192 18.4437 23.9864 18.3349 24.055 18.0914L26.3578 11.6472C26.476 11.3019 26.7669 11.0158 27.1145 10.8455C27.4621 10.6752 27.8617 10.6562 28.2023 10.8099C28.5475 10.9281 28.8337 11.219 29.004 11.5666C29.1743 11.9142 29.1932 12.3138 29.0395 12.6544L25.5758 22.1208Z" fill="black" stroke="#2C2C3E"/>
</svg>
