<svg width="48" height="48" viewBox="0 0 48 48" fill="none" xmlns="http://www.w3.org/2000/svg">
<circle cx="24" cy="24" r="24" fill="#AFAFAF"/>
<path d="M40.4504 24C40.4504 15.1641 33.2056 8 24.2701 8C15.3347 8 8.08984 15.1641 8.08984 24C8.08984 31.9854 14.0059 38.605 21.7422 39.8065V28.6261H17.6328V24H21.7422V20.4742C21.7422 16.4646 24.1586 14.2483 27.8539 14.2483C29.6241 14.2483 31.4763 14.5611 31.4763 14.5611V18.4987H29.4353C27.4261 18.4987 26.7981 19.7317 26.7981 20.9985V24H31.2851L30.5684 28.6261H26.7981V39.8065C34.5344 38.6072 40.4504 31.9876 40.4504 24Z" fill="white"/>
<path d="M30.5674 28.6258L31.2842 23.9997H26.7971V20.9982C26.7971 19.7336 27.4228 18.4984 29.4343 18.4984H31.4753V14.5608C31.4753 14.5608 29.6231 14.248 27.8529 14.248C24.1576 14.248 21.7412 16.4621 21.7412 20.4739V23.9997H17.6318V28.6258H21.7412V39.8062C22.5649 39.9344 23.409 39.9997 24.2691 39.9997C25.1292 39.9997 25.9734 39.9322 26.7971 39.8062V28.6258H30.5674Z" fill="#AFAFAF"/>
</svg>
