<svg width="146" height="83" viewBox="0 0 146 83" fill="none" xmlns="http://www.w3.org/2000/svg">
<path d="M8.2207 36.8662H138.094V46.0608H8.2207V36.8662Z" fill="black"/>
<path d="M61.872 61.7752C61.872 61.7752 52.7756 52.6788 41.5547 41.4579C30.3337 30.2369 21.2374 21.1405 21.2374 21.1405C32.4583 9.91961 50.6511 9.91961 61.872 21.1405C73.0929 32.3615 73.0929 50.5542 61.872 61.7752Z" fill="#333333"/>
<path d="M61.8738 61.7758C50.6529 72.9967 32.4602 72.9967 21.2392 61.7757C10.0183 50.5548 10.0183 32.3621 21.2392 21.1411C21.2392 21.1411 30.3356 30.2375 41.5566 41.4584C52.7775 52.6794 61.8738 61.7758 61.8738 61.7758Z" fill="black"/>
<path d="M125.075 61.78C125.075 61.78 115.979 52.6837 104.758 41.4627C93.5369 30.2418 84.4405 21.1454 84.4405 21.1454C95.6614 9.92449 113.854 9.92449 125.075 21.1454C136.296 32.3664 136.296 50.5591 125.075 61.78Z" fill="#333333"/>
<path d="M125.077 61.7762C113.856 72.9972 95.6633 72.9972 84.4424 61.7762C73.2214 50.5553 73.2214 32.3626 84.4424 21.1416C84.4424 21.1416 93.5388 30.238 104.76 41.4589C115.981 52.6798 125.077 61.7762 125.077 61.7762Z" fill="black"/>
</svg>
