<svg width="40" height="40" viewBox="0 0 40 40" fill="none" xmlns="http://www.w3.org/2000/svg">
<rect width="40" height="40" rx="6.66667" fill="white"/>
<rect width="33" height="33" transform="translate(4 3)" fill="white"/>
<path d="M14.5601 36L23.8001 36L23.8001 26.76L14.5601 36Z" fill="#3D4D41"/>
<circle cx="24.7901" cy="19.5" r="7.293" fill="#FCC5F3"/>
<circle cx="13.7183" cy="20.6055" r="6.5835" fill="#ACD9B7"/>
<path d="M11.458 18.8809H29.6112V20.166H11.458V18.8809Z" fill="black"/>
<path d="M18.9571 22.3634C18.9571 22.3634 17.6856 21.0919 16.1172 19.5235C14.5488 17.9551 13.2773 16.6836 13.2773 16.6836C14.8457 15.1152 17.3886 15.1152 18.9571 16.6836C20.5255 18.252 20.5255 20.795 18.9571 22.3634Z" fill="#333333"/>
<path d="M18.9571 22.3633C17.3887 23.9318 14.8458 23.9318 13.2773 22.3633C11.7089 20.7949 11.7089 18.252 13.2773 16.6836C13.2773 16.6836 14.5488 17.955 16.1172 19.5235C17.6856 21.0919 18.9571 22.3633 18.9571 22.3633Z" fill="black"/>
<path d="M27.7925 22.3634C27.7925 22.3634 26.5211 21.0919 24.9526 19.5235C23.3842 17.9551 22.1128 16.6836 22.1128 16.6836C23.6812 15.1152 26.2241 15.1152 27.7925 16.6836C29.3609 18.252 29.3609 20.795 27.7925 22.3634Z" fill="#333333"/>
<path d="M27.7925 22.3633C26.2241 23.9318 23.6812 23.9318 22.1128 22.3633C20.5444 20.7949 20.5444 18.252 22.1128 16.6836C22.1128 16.6836 23.3842 17.955 24.9527 19.5235C26.5211 21.0919 27.7925 22.3633 27.7925 22.3633Z" fill="black"/>
<rect x="20.1367" y="19.9951" width="1.221" height="0.165" fill="black"/>
<path d="M23.8002 14.814C20.1551 14.814 17.2002 11.859 17.2002 8.21397L23.8002 8.21397C27.4453 8.21396 30.4002 11.1689 30.4002 14.814L23.8002 14.814Z" fill="#ACD9B7"/>
<path d="M17.1998 12.8999C20.8449 12.8999 23.7998 9.94498 23.7998 6.2999L17.1998 6.2999C13.5547 6.2999 10.5998 9.25482 10.5998 12.8999L17.1998 12.8999Z" fill="#3D4D41"/>
<path d="M21.16 19.4999C21.16 19.4999 21.16 21.7161 21.16 24.4499C21.16 27.1837 21.16 29.3999 21.16 29.3999C18.6085 29.3999 16.54 27.1837 16.54 24.4499C16.54 21.7161 18.6085 19.4999 21.16 19.4999Z" fill="#F8C471"/>
</svg>
