<svg width="132" height="176" viewBox="0 0 132 176" fill="none" xmlns="http://www.w3.org/2000/svg">
<g clip-path="url(#clip0_5706_23814)">
<path d="M0 44.0342H65.9656V110.017H0V44.0342Z" fill="#FCCD6C"/>
<path d="M66 110V176H0C0 139.525 29.5245 110 66 110Z" fill="#3D4D41"/>
<path d="M132 110.017L65.9656 44.0342H131.931V110.017H132Z" fill="#ACD9B7"/>
<path d="M65.9656 44.0342L131.931 110.017H65.9656V44.0342Z" fill="#3D4D41"/>
<path d="M131.966 110L66 175.983V110H131.966Z" fill="#28332B"/>
<path d="M0 44.0344C0 19.6779 19.6727 0 44.0229 0H132C132 24.2877 112.327 44.0344 87.9771 44.0344H0Z" fill="#3D4D41"/>
<path d="M8.06512 86.5664L124.937 55.2508L127.163 63.5582L10.2911 94.8738L8.06512 86.5664Z" fill="black"/>
<path d="M62.3875 96.0874C62.3875 96.0874 52.0248 90.1026 39.2188 82.7069C26.3951 75.2447 16.0323 69.26 16.0323 69.26C23.4247 56.4521 39.7695 52.0725 52.5754 59.4683C65.3814 66.864 69.7799 83.2795 62.3875 96.0874Z" fill="#333333"/>
<path d="M62.3875 96.0869C54.9951 108.895 38.6504 113.274 25.8444 105.879C13.0384 98.4828 8.65775 82.1338 16.0502 69.3259C16.0502 69.3259 26.4129 75.3106 39.2188 82.7064C52.007 90.0357 62.3875 96.0869 62.3875 96.0869Z" fill="black"/>
<path d="M119.262 80.8481C119.262 80.8481 108.899 74.8634 96.0932 67.4676C83.2694 60.0054 72.9067 54.0207 72.9067 54.0207C80.2991 41.2128 96.6438 36.8333 109.45 44.229C122.256 51.6247 126.654 68.0402 119.262 80.8481Z" fill="#333333"/>
<path d="M119.262 80.8476C111.869 93.6555 95.5247 98.035 82.7187 90.6393C69.9128 83.2435 65.5321 66.8945 72.9245 54.0867C72.9245 54.0867 83.2872 60.0714 96.0932 67.4671C108.881 74.7964 119.262 80.8476 119.262 80.8476Z" fill="black"/>
<path d="M65.9656 132.034C65.9656 114.902 65.9656 80.3623 65.9656 80.3623C83.0932 80.3623 96.988 94.2607 96.988 111.324V132.034H65.9656Z" fill="#FCC5F3"/>
</g>
<defs>
<clipPath id="clip0_5706_23814">
<rect width="132" height="176" fill="white"/>
</clipPath>
</defs>
</svg>
