<?xml version="1.0" encoding="UTF-8"?>
<svg width="136px" height="135px" viewBox="0 0 136 135" version="1.1" xmlns="http://www.w3.org/2000/svg" xmlns:xlink="http://www.w3.org/1999/xlink">
    <title>Visual(1)</title>
    <g id="Page-1" stroke="none" stroke-width="1" fill="none" fill-rule="evenodd">
        <g id="Visual(1)">
            <path d="M68,0 L68,34.9197 C68,39.338 64.4183,42.9197 60,42.9197 L24,42.9197 C19.5817,42.9197 16,46.5014 16,50.9197 L16,60" id="Path" stroke="#3C3C3C" stroke-width="3"></path>
            <path d="M16,52 L16,86.9197 C16,91.338 19.5817,94.9197 24,94.9197 L60,94.9197 C64.4183,94.9197 68,98.5014 68,102.92 L68,112" id="Path" stroke="#3C3C3C" stroke-width="3"></path>
            <path d="M68,0 L68,34.9197 C68,39.338 71.5817,42.9197 76,42.9197 L112,42.9197 C116.418,42.9197 120,46.5014 120,50.9197 L120,60" id="Path" stroke="#3C3C3C" stroke-width="3"></path>
            <line x1="68" y1="21" x2="68" y2="60" id="Path" stroke="#3C3C3C" stroke-width="3"></line>
            <line x1="16" y1="72" x2="16" y2="111" id="Path" stroke="#3C3C3C" stroke-width="3"></line>
            <line x1="120" y1="72" x2="120" y2="111" id="Path" stroke="#3C3C3C" stroke-width="3"></line>
            <rect id="Rectangle" fill="#FFFFFF" fill-rule="nonzero" x="0" y="53" width="32" height="32" rx="5.33333"></rect>
            <polygon id="Path" fill="#F8C471" fill-rule="nonzero" points="6.66699 62.6304 15.9316 71.8949 6.66699 71.8949"></polygon>
            <polygon id="Path" fill="#ACD9B7" fill-rule="nonzero" points="6.66699 71.8945 15.9316 71.8945 15.9316 81.1591"></polygon>
            <path d="M19.8318,64.4502 C18.318,61.8282 19.2164,58.4754 21.8384,56.9616 L24.5931,61.733 C26.107,64.355 25.2086,67.7078 22.5866,69.2216 L19.8318,64.4502 Z" id="Path" fill="#ACD9B7" fill-rule="nonzero"></path>
            <path d="M12.7658,63.179 C14.2796,65.801 17.6324,66.6993 20.2544,65.1855 L17.4996,60.4141 C15.9858,57.7921 12.6331,56.8937 10.0111,58.4075 L12.7658,63.179 Z" id="Path" fill="#3D4D41" fill-rule="nonzero"></path>
            <polygon id="Path" fill="#000000" fill-rule="nonzero" points="8.09229 67.5837 23.2462 67.5837 23.2462 68.6566 8.09229 68.6566"></polygon>
            <path d="M14.3521,70.4914 C14.3521,70.4914 13.2907,69.43 11.9814,68.1207 C10.6722,66.8115 9.61077,65.7501 9.61077,65.7501 C10.9201,64.4408 13.0428,64.4408 14.3521,65.7501 C15.6614,67.0594 15.6614,69.1821 14.3521,70.4914 Z" id="Path" fill="#333333" fill-rule="nonzero"></path>
            <path d="M14.3522,70.4916 C13.0429,71.8009 10.9201,71.8009 9.61084,70.4916 C8.30155,69.1823 8.30155,67.0595 9.61084,65.7502 C9.61084,65.7502 10.6722,66.8116 11.9815,68.1209 C13.2908,69.4302 14.3522,70.4916 14.3522,70.4916 Z" id="Path" fill="#000000" fill-rule="nonzero"></path>
            <path d="M21.7266,70.4914 C21.7266,70.4914 20.6652,69.43 19.356,68.1207 C18.0467,66.8115 16.9853,65.7501 16.9853,65.7501 C18.2946,64.4408 20.4173,64.4408 21.7266,65.7501 C23.0359,67.0594 23.0359,69.1821 21.7266,70.4914 Z" id="Path" fill="#333333" fill-rule="nonzero"></path>
            <path d="M21.7262,70.4913 C20.4169,71.8006 18.2941,71.8006 16.9849,70.4913 C15.6756,69.1821 15.6756,67.0593 16.9849,65.75 C16.9849,65.75 18.0462,66.8114 19.3555,68.1207 C20.6648,69.43 21.7262,70.4913 21.7262,70.4913 Z" id="Path" fill="#000000" fill-rule="nonzero"></path>
            <rect id="Rectangle" fill="#000000" fill-rule="nonzero" x="15.3374" y="68.5146" width="1.01927" height="1"></rect>
            <polygon id="Path" fill="#FCC5F3" fill-rule="nonzero" points="15.9321 71.8945 21.6334 77.5958 15.9321 77.5958"></polygon>
            <rect id="Rectangle" fill="#FFFFFF" fill-rule="nonzero" x="52" y="53" width="32" height="32" rx="5.33333"></rect>
            <rect id="Rectangle" fill="#FFFFFF" fill-rule="nonzero" x="52" y="103" width="32" height="32" rx="5.33333"></rect>
            <rect id="Rectangle" fill="#FFFFFF" fill-rule="nonzero" x="0" y="103" width="32" height="32" rx="5.33333"></rect>
            <rect id="Rectangle" fill="#FFFFFF" fill-rule="nonzero" x="104" y="103" width="32" height="32" rx="5.33333"></rect>
            <g id="Group" transform="translate(55.000000, 55.000000)" fill-rule="nonzero">
                <rect id="Rectangle" fill="#FFFFFF" x="0.2002" y="0.3999" width="26.4" height="26.4"></rect>
                <polygon id="Path" fill="#3D4D41" points="8.6484 26.7998 16.0404 26.7998 16.0404 19.4078"></polygon>
                <circle id="Oval" fill="#FCC5F3" cx="16.832" cy="13.5998" r="5.8344"></circle>
                <circle id="Oval" fill="#ACD9B7" cx="7.9748" cy="14.4841" r="5.2668"></circle>
                <polygon id="Path" fill="#000000" points="6.1665 13.1042 20.689 13.1042 20.689 14.1324 6.1665 14.1324"></polygon>
                <path d="M12.1659,15.8902 C12.1659,15.8902 11.1488,14.873 9.894,13.6183 C8.6393,12.3635 7.6221,11.3464 7.6221,11.3464 C8.8769,10.0916 10.9112,10.0916 12.1659,11.3464 C13.4207,12.6011 13.4207,14.6354 12.1659,15.8902 Z" id="Path" fill="#333333"></path>
                <path d="M12.1659,15.8902 C10.9111,17.145 8.8768,17.145 7.6221,15.8902 C6.3673,14.6355 6.3673,12.6012 7.6221,11.3464 C7.6221,11.3464 8.6392,12.3636 9.894,13.6183 C11.1487,14.8731 12.1659,15.8902 12.1659,15.8902 Z" id="Path" fill="#000000"></path>
                <path d="M19.2343,15.8902 C19.2343,15.8902 18.2171,14.873 16.9624,13.6183 C15.7077,12.3635 14.6905,11.3464 14.6905,11.3464 C15.9452,10.0916 17.9796,10.0916 19.2343,11.3464 C20.489,12.6011 20.489,14.6354 19.2343,15.8902 Z" id="Path" fill="#333333"></path>
                <path d="M19.2342,15.8902 C17.9795,17.145 15.9452,17.145 14.6904,15.8902 C13.4357,14.6355 13.4357,12.6012 14.6904,11.3464 C14.6904,11.3464 15.7076,12.3636 16.9623,13.6183 C18.2171,14.8731 19.2342,15.8902 19.2342,15.8902 Z" id="Path" fill="#000000"></path>
                <rect id="Rectangle" fill="#000000" x="13.1099" y="13.9956" width="1" height="1"></rect>
                <path d="M16.0403,9.8511 C13.1242,9.8511 10.7603,7.4871 10.7603,4.5711 L16.0403,4.5711 C18.9563,4.5711 21.3203,6.935 21.3203,9.8511 L16.0403,9.8511 Z" id="Path" fill="#ACD9B7"></path>
                <path d="M10.76,8.3198 C13.6761,8.3198 16.04,5.9559 16.04,3.0398 L10.76,3.0398 C7.844,3.0398 5.48,5.4038 5.48,8.3198 L10.76,8.3198 Z" id="Path" fill="#3D4D41"></path>
                <path d="M13.9284,13.6 C13.9284,13.6 13.9284,15.373 13.9284,17.56 C13.9284,19.7471 13.9284,21.52 13.9284,21.52 C11.8872,21.52 10.2324,19.7471 10.2324,17.56 C10.2324,15.373 11.8872,13.6 13.9284,13.6 Z" id="Path" fill="#F8C471"></path>
            </g>
            <g id="Group" transform="translate(55.000000, 105.000000)" fill-rule="nonzero">
                <rect id="Rectangle" fill="#FFFFFF" x="0.2002" y="0.4" width="26.4" height="26.4"></rect>
                <polygon id="Path" fill="#3D4D41" points="8.6484 26.8 16.0404 26.8 16.0404 19.408"></polygon>
                <circle id="Oval" fill="#FCC5F3" cx="16.832" cy="13.6" r="5.8344"></circle>
                <circle id="Oval" fill="#ACD9B7" cx="7.9748" cy="14.484" r="5.2668"></circle>
                <polygon id="Path" fill="#000000" points="6.1665 13.104 20.689 13.104 20.689 14.132 6.1665 14.132"></polygon>
                <path d="M12.1659,15.89 C12.1659,15.89 11.1488,14.873 9.894,13.618 C8.6393,12.364 7.6221,11.346 7.6221,11.346 C8.8769,10.092 10.9112,10.092 12.1659,11.346 C13.4207,12.601 13.4207,14.635 12.1659,15.89 Z" id="Path" fill="#333333"></path>
                <path d="M12.1659,15.89 C10.9111,17.145 8.8768,17.145 7.6221,15.89 C6.3673,14.636 6.3673,12.601 7.6221,11.346 C7.6221,11.346 8.6392,12.364 9.894,13.618 C11.1487,14.873 12.1659,15.89 12.1659,15.89 Z" id="Path" fill="#000000"></path>
                <path d="M19.2343,15.89 C19.2343,15.89 18.2171,14.873 16.9624,13.618 C15.7077,12.364 14.6905,11.346 14.6905,11.346 C15.9452,10.092 17.9796,10.092 19.2343,11.346 C20.489,12.601 20.489,14.635 19.2343,15.89 Z" id="Path" fill="#333333"></path>
                <path d="M19.2342,15.89 C17.9795,17.145 15.9452,17.145 14.6904,15.89 C13.4357,14.636 13.4357,12.601 14.6904,11.346 C14.6904,11.346 15.7076,12.364 16.9623,13.618 C18.2171,14.873 19.2342,15.89 19.2342,15.89 Z" id="Path" fill="#000000"></path>
                <rect id="Rectangle" fill="#000000" x="13.1099" y="13.996" width="1" height="1"></rect>
                <path d="M16.0403,9.851 C13.1242,9.851 10.7603,7.487 10.7603,4.571 L16.0403,4.571 C18.9563,4.571 21.3203,6.935 21.3203,9.851 L16.0403,9.851 Z" id="Path" fill="#ACD9B7"></path>
                <path d="M10.76,8.32 C13.6761,8.32 16.04,5.956 16.04,3.04 L10.76,3.04 C7.844,3.04 5.48,5.404 5.48,8.32 L10.76,8.32 Z" id="Path" fill="#3D4D41"></path>
                <path d="M13.9284,13.6 C13.9284,13.6 13.9284,15.373 13.9284,17.56 C13.9284,19.747 13.9284,21.52 13.9284,21.52 C11.8872,21.52 10.2324,19.747 10.2324,17.56 C10.2324,15.373 11.8872,13.6 13.9284,13.6 Z" id="Path" fill="#F8C471"></path>
            </g>
            <g id="Group" transform="translate(3.000000, 105.000000)" fill-rule="nonzero">
                <rect id="Rectangle" fill="#FFFFFF" x="0.2002" y="0.4" width="26.4" height="26.4"></rect>
                <polygon id="Path" fill="#3D4D41" points="8.6484 26.8 16.0404 26.8 16.0404 19.408"></polygon>
                <circle id="Oval" fill="#FCC5F3" cx="16.832" cy="13.6" r="5.8344"></circle>
                <circle id="Oval" fill="#ACD9B7" cx="7.9748" cy="14.484" r="5.2668"></circle>
                <polygon id="Path" fill="#000000" points="6.1665 13.104 20.689 13.104 20.689 14.132 6.1665 14.132"></polygon>
                <path d="M12.1659,15.89 C12.1659,15.89 11.1488,14.873 9.894,13.618 C8.6393,12.364 7.6221,11.346 7.6221,11.346 C8.8769,10.092 10.9112,10.092 12.1659,11.346 C13.4207,12.601 13.4207,14.635 12.1659,15.89 Z" id="Path" fill="#333333"></path>
                <path d="M12.1659,15.89 C10.9111,17.145 8.8768,17.145 7.6221,15.89 C6.36733,14.636 6.36733,12.601 7.6221,11.346 C7.6221,11.346 8.6392,12.364 9.894,13.618 C11.1487,14.873 12.1659,15.89 12.1659,15.89 Z" id="Path" fill="#000000"></path>
                <path d="M19.2343,15.89 C19.2343,15.89 18.2171,14.873 16.9624,13.618 C15.7077,12.364 14.6905,11.346 14.6905,11.346 C15.9452,10.092 17.9796,10.092 19.2343,11.346 C20.489,12.601 20.489,14.635 19.2343,15.89 Z" id="Path" fill="#333333"></path>
                <path d="M19.2342,15.89 C17.9795,17.145 15.9452,17.145 14.6904,15.89 C13.4357,14.636 13.4357,12.601 14.6904,11.346 C14.6904,11.346 15.7076,12.364 16.9623,13.618 C18.2171,14.873 19.2342,15.89 19.2342,15.89 Z" id="Path" fill="#000000"></path>
                <rect id="Rectangle" fill="#000000" x="13.1099" y="13.996" width="1" height="1"></rect>
                <path d="M16.0403,9.851 C13.1242,9.851 10.7603,7.487 10.7603,4.571 L16.0403,4.571 C18.9563,4.571 21.3203,6.935 21.3203,9.851 L16.0403,9.851 Z" id="Path" fill="#ACD9B7"></path>
                <path d="M10.76,8.32 C13.6761,8.32 16.04,5.956 16.04,3.04 L10.76,3.04 C7.844,3.04 5.48004,5.404 5.48004,8.32 L10.76,8.32 Z" id="Path" fill="#3D4D41"></path>
                <path d="M13.9284,13.6 C13.9284,13.6 13.9284,15.373 13.9284,17.56 C13.9284,19.747 13.9284,21.52 13.9284,21.52 C11.8872,21.52 10.2324,19.747 10.2324,17.56 C10.2324,15.373 11.8872,13.6 13.9284,13.6 Z" id="Path" fill="#F8C471"></path>
            </g>
            <g id="Group" transform="translate(107.000000, 105.000000)" fill-rule="nonzero">
                <rect id="Rectangle" fill="#FFFFFF" x="0.2" y="0.4" width="26.4" height="26.4"></rect>
                <polygon id="Path" fill="#3D4D41" points="8.648 26.8 16.04 26.8 16.04 19.408"></polygon>
                <circle id="Oval" fill="#FCC5F3" cx="16.832" cy="13.6" r="5.8344"></circle>
                <circle id="Oval" fill="#ACD9B7" cx="7.975" cy="14.484" r="5.2668"></circle>
                <polygon id="Path" fill="#000000" points="6.167 13.104 20.689 13.104 20.689 14.132 6.167 14.132"></polygon>
                <path d="M12.166,15.89 C12.166,15.89 11.149,14.873 9.894,13.618 C8.639,12.364 7.622,11.346 7.622,11.346 C8.877,10.092 10.911,10.092 12.166,11.346 C13.421,12.601 13.421,14.635 12.166,15.89 Z" id="Path" fill="#333333"></path>
                <path d="M12.166,15.89 C10.911,17.145 8.877,17.145 7.622,15.89 C6.367,14.636 6.367,12.601 7.622,11.346 C7.622,11.346 8.639,12.364 9.894,13.618 C11.149,14.873 12.166,15.89 12.166,15.89 Z" id="Path" fill="#000000"></path>
                <path d="M19.234,15.89 C19.234,15.89 18.217,14.873 16.962,13.618 C15.708,12.364 14.691,11.346 14.691,11.346 C15.945,10.092 17.98,10.092 19.234,11.346 C20.489,12.601 20.489,14.635 19.234,15.89 Z" id="Path" fill="#333333"></path>
                <path d="M19.234,15.89 C17.979,17.145 15.945,17.145 14.69,15.89 C13.436,14.636 13.436,12.601 14.69,11.346 C14.69,11.346 15.708,12.364 16.962,13.618 C18.217,14.873 19.234,15.89 19.234,15.89 Z" id="Path" fill="#000000"></path>
                <rect id="Rectangle" fill="#000000" x="13.11" y="13.996" width="1" height="1"></rect>
                <path d="M16.04,9.851 C13.124,9.851 10.76,7.487 10.76,4.571 L16.04,4.571 C18.956,4.571 21.32,6.935 21.32,9.851 L16.04,9.851 Z" id="Path" fill="#ACD9B7"></path>
                <path d="M10.76,8.32 C13.676,8.32 16.04,5.956 16.04,3.04 L10.76,3.04 C7.844,3.04 5.48,5.404 5.48,8.32 L10.76,8.32 Z" id="Path" fill="#3D4D41"></path>
                <path d="M13.928,13.6 C13.928,13.6 13.928,15.373 13.928,17.56 C13.928,19.747 13.928,21.52 13.928,21.52 C11.887,21.52 10.232,19.747 10.232,17.56 C10.232,15.373 11.887,13.6 13.928,13.6 Z" id="Path" fill="#F8C471"></path>
            </g>
            <rect id="Rectangle" fill="#FFFFFF" fill-rule="nonzero" x="104" y="53" width="32" height="32" rx="5.33333"></rect>
            <g id="Group" transform="translate(106.000000, 56.000000)" fill-rule="nonzero">
                <rect id="Rectangle" fill="#FFFFFF" x="0" y="0" width="25.6" height="25.6"></rect>
                <polygon id="Path" fill="#F8C471" points="2.72 13.627 13.573 24.4798 2.72 24.4798"></polygon>
                <polygon id="Path" fill="#ACD9B7" points="24.48 13.627 13.627 24.4798 24.48 24.4798"></polygon>
                <path d="M20.885,6.1935 C19.39,8.7824 16.08,9.6694 13.491,8.1747 L16.211,3.4635 C17.706,0.8746 21.016,-0.0124 23.605,1.4823 L20.885,6.1935 Z" id="Path" fill="#3D4D41"></path>
                <path d="M6.202,6.1935 C7.697,8.7824 11.007,9.6694 13.596,8.1747 L10.876,3.4635 C9.381,0.8746 6.071,-0.0124 3.482,1.4823 L6.202,6.1935 Z" id="Path" fill="#ACD9B7"></path>
                <polygon id="Path" fill="#000000" points="6.147 13.0894 21.11 13.0894 21.11 14.1487 6.147 14.1487"></polygon>
                <path d="M12.328,15.9597 C12.328,15.9597 11.28,14.9117 9.987,13.619 C8.695,12.3262 7.647,11.2782 7.647,11.2782 C8.939,9.9855 11.035,9.9855 12.328,11.2782 C13.621,12.571 13.621,14.667 12.328,15.9597 Z" id="Path" fill="#333333"></path>
                <path d="M12.328,15.9598 C11.036,17.2526 8.94,17.2526 7.647,15.9598 C6.354,14.6671 6.354,12.5711 7.647,11.2783 C7.647,11.2783 8.695,12.3263 9.988,13.6191 C11.28,14.9118 12.328,15.9598 12.328,15.9598 Z" id="Path" fill="#000000"></path>
                <path d="M19.611,15.9597 C19.611,15.9597 18.563,14.9117 17.27,13.619 C15.977,12.3262 14.929,11.2782 14.929,11.2782 C16.222,9.9855 18.318,9.9855 19.611,11.2782 C20.904,12.571 20.904,14.667 19.611,15.9597 Z" id="Path" fill="#333333"></path>
                <path d="M19.611,15.9598 C18.318,17.2526 16.222,17.2526 14.929,15.9598 C13.636,14.6671 13.636,12.5711 14.929,11.2783 C14.929,11.2783 15.977,12.3263 17.27,13.6191 C18.563,14.9118 19.611,15.9598 19.611,15.9598 Z" id="Path" fill="#000000"></path>
                <rect id="Rectangle" fill="#000000" x="13.301" y="14.0078" width="1.0064" height="1"></rect>
                <polygon id="Path" fill="#FCC5F3" points="19.067 24.48 8.16 24.48 13.6 19.04"></polygon>
            </g>
        </g>
    </g>
</svg>