<svg width="160" height="160" viewBox="0 0 160 160" fill="none" xmlns="http://www.w3.org/2000/svg">
<path d="M96 96L64 64L96 64L96 96Z" fill="#ACD9B7"/>
<path d="M64 64L96 96H64V64Z" fill="#88C797"/>
<path d="M140 96C131.068 96 108 96 108 96C108 87.1634 115.24 80 124.172 80L140 80L140 96Z" fill="#FBA5EC"/>
<path d="M108 64C116.932 64 140 64 140 64C140 72.8366 132.76 80 123.828 80L108 80L108 64Z" fill="#FCC5F3"/>
<path d="M36 96C44.8366 96 52 88.8366 52 80L20 80C20 88.8366 27.1634 96 36 96Z" fill="#FCCD6C"/>
<path d="M36 64C27.1634 64 20 71.3263 20 80L52 80C52 71.3263 44.8366 64 36 64Z" fill="#EEB338"/>
</svg>
