<svg width="120" height="120" viewBox="0 0 120 120" fill="none" xmlns="http://www.w3.org/2000/svg">
<mask id="mask0_27_6093" style="mask-type:alpha" maskUnits="userSpaceOnUse" x="0" y="0" width="120" height="120">
<circle cx="60" cy="60" r="60" fill="#C4C4C4"/>
</mask>
<g mask="url(#mask0_27_6093)">
<circle cx="60" cy="60" r="60" fill="black"/>
<path d="M49.4373 58.2053C17.876 34.0954 2.0954 22.0405 5.82302 11.0202C9.55064 0 29.4089 0 69.1254 0H91.2895C108.868 0 117.657 0 122.397 4.69246C124.087 6.36581 125.388 8.39047 126.208 10.6229C128.509 16.8832 124.859 24.8786 117.559 40.8695V40.8695C115.672 45.0027 114.729 47.0693 113.3 48.7658C112.767 49.3973 112.188 49.9872 111.566 50.5305C109.895 51.9898 107.846 52.9698 103.747 54.9298L74.8702 68.7373C71.3837 70.4045 69.6404 71.238 67.8228 71.0498C66.0052 70.8617 64.4697 69.6887 61.3987 67.3427L49.4373 58.2053Z" fill="#C3C3FF"/>
<path d="M68.5427 109.006C64.4738 96.0491 62.4393 89.5705 64.9154 83.9795C67.3914 78.3884 73.5561 75.5409 85.8854 69.846L106.332 60.4019C108.829 59.2485 110.077 58.6718 111.398 58.3142C112.72 57.9566 114.089 57.825 116.827 57.5616L123.382 56.9312C139.99 55.3339 148.294 54.5352 153.607 59.3611C158.919 64.187 158.919 72.5295 158.919 89.2147V100.54C158.919 115.829 158.919 123.474 154.169 128.223C149.42 132.973 141.775 132.973 126.486 132.973H99.8782C88.3996 132.973 82.6603 132.973 78.3773 129.829C74.0942 126.684 72.3747 121.209 68.9356 110.257L68.5427 109.006Z" fill="#757599"/>
<path d="M-14.5267 59.5161C-2.60133 44.7935 3.36133 37.4322 11.2231 37.5338C19.0848 37.6353 24.8553 45.1482 36.3964 60.1739L52.2289 80.7869C53.4709 82.4039 54.0919 83.2124 54.6041 84.0861C54.917 84.6199 55.1991 85.1711 55.449 85.7371C55.8581 86.6636 56.1506 87.6402 56.7357 89.5934V89.5934C61.3996 105.163 63.7316 112.948 61.336 118.407C59.9198 121.634 57.4907 124.312 54.4166 126.035C49.2165 128.951 41.2418 127.387 25.2924 124.26L-1.44606 119.017C-25.0689 114.385 -36.8803 112.069 -40.0079 103.452C-43.1354 94.8356 -35.5595 85.4826 -20.4077 66.7766L-14.5267 59.5161Z" fill="#616180"/>
</g>
<path fill-rule="evenodd" clip-rule="evenodd" d="M60.0043 29.0269C50.2939 29.0269 42.3852 36.9272 42.3852 46.6386C42.3852 51.3428 43.76 57.2265 46.604 62.1148C47.4474 63.5643 48.4388 64.9321 49.572 66.1412C49.4808 66.8436 49.3387 67.4048 49.1804 67.7603C48.9898 68.1879 48.8599 68.2723 48.7324 68.3211C46.953 68.9927 42.1536 69.3804 37.624 70.7964C33.0908 72.2136 28.4417 75.0107 27.2122 80.7255C27.1571 80.9818 27.1704 81.2481 27.2509 81.4975C27.3314 81.747 27.4762 81.9708 27.6707 82.1465C45.4883 98.2392 74.5125 98.2392 92.3301 82.1465C92.5246 81.9708 92.6694 81.747 92.7499 81.4975C92.8304 81.2481 92.8437 80.9818 92.7886 80.7255C91.5591 75.0107 86.9104 72.2136 82.3781 70.7964C77.8478 69.3799 73.047 68.9918 71.2744 68.3206C71.2737 68.3203 71.2734 68.3201 71.2729 68.3199C71.2729 68.3198 71.2721 68.3197 71.2721 68.3196C71.0334 68.2283 70.8892 68.1106 70.6905 67.7239C70.5305 67.4123 70.3826 66.9274 70.2775 66.3051C71.475 65.0566 72.5168 63.6297 73.3979 62.1146C76.2408 57.2264 77.6159 51.3428 77.6159 46.6386C77.6159 36.9281 69.7148 29.0269 60.0043 29.0269V29.0269Z" fill="black"/>
</svg>
