<svg width="40" height="40" viewBox="0 0 40 40" fill="none" xmlns="http://www.w3.org/2000/svg">
<rect width="40" height="40" rx="6.66667" fill="white"/>
<g clip-path="url(#clip0_2_23081)">
<rect width="32" height="32" transform="translate(3 4)" fill="white"/>
<path d="M6.3999 21.0339L19.9659 34.5999H6.3999L6.3999 21.0339Z" fill="#F8C471"/>
<path d="M33.6001 21.0339L20.0341 34.5999H33.6001V21.0339Z" fill="#ACD9B7"/>
<path d="M29.1066 11.742C27.2383 14.9782 23.1002 16.0869 19.8641 14.2186L23.2641 8.32959C25.1325 5.09346 29.2705 3.98468 32.5066 5.85306L29.1066 11.742Z" fill="#3D4D41"/>
<path d="M10.7518 11.742C12.6201 14.9782 16.7582 16.0869 19.9943 14.2186L16.5943 8.32959C14.7259 5.09346 10.5879 3.98468 7.35177 5.85306L10.7518 11.742Z" fill="#ACD9B7"/>
<path d="M10.6841 20.3618H29.3874V21.6859H10.6841V20.3618Z" fill="black"/>
<path d="M18.4103 23.9499C18.4103 23.9499 17.1003 22.6399 15.4844 21.024C13.8684 19.408 12.5584 18.0981 12.5584 18.0981C14.1744 16.4821 16.7944 16.4821 18.4103 18.0981C20.0263 19.714 20.0263 22.334 18.4103 23.9499Z" fill="#333333"/>
<path d="M18.4105 23.95C16.7945 25.566 14.1745 25.566 12.5586 23.95C10.9426 22.3341 10.9426 19.7141 12.5586 18.0981C12.5586 18.0981 13.8686 19.4081 15.4845 21.0241C17.1005 22.64 18.4105 23.95 18.4105 23.95Z" fill="black"/>
<path d="M27.5133 23.9499C27.5133 23.9499 26.2033 22.6399 24.5874 21.024C22.9715 19.408 21.6615 18.0981 21.6615 18.0981C23.2774 16.4821 25.8974 16.4821 27.5133 18.0981C29.1293 19.714 29.1293 22.334 27.5133 23.9499Z" fill="#333333"/>
<path d="M27.5135 23.95C25.8975 25.566 23.2776 25.566 21.6616 23.95C20.0457 22.3341 20.0457 19.7141 21.6616 18.0981C21.6616 18.0981 22.9716 19.4081 24.5876 21.0241C26.2035 22.64 27.5135 23.95 27.5135 23.95Z" fill="black"/>
<rect x="19.626" y="21.51" width="1.258" height="0.17" fill="black"/>
<path d="M26.834 34.6001L13.2 34.6001L20 27.8001L26.834 34.6001Z" fill="#FCC5F3"/>
</g>
<defs>
<clipPath id="clip0_2_23081">
<rect width="32" height="32" fill="white" transform="translate(3 4)"/>
</clipPath>
</defs>
</svg>
