<svg width="160" height="27" viewBox="0 0 160 27" fill="none" xmlns="http://www.w3.org/2000/svg">
<mask id="mask0_1384_11068" style="mask-type:alpha" maskUnits="userSpaceOnUse" x="1" y="1" width="158" height="25">
<path d="M1 25.9999L8.51643 21.8506C9.15724 21.4969 9.94009 21.5214 10.5574 21.9147L16.9711 25.9999L26.3443 14.1405C27.1108 13.1707 28.5647 13.1215 29.395 14.0372L35.3592 20.6152C36.0802 21.4103 37.3004 21.4946 38.1238 20.8061L41.6269 17.8769C42.4929 17.1528 43.7861 17.2883 44.4831 18.1762L50.6245 25.9999L70.5444 4.85876C71.3392 4.01514 72.6825 4.02176 73.4691 4.87318L81.6313 13.7087C82.3253 14.46 83.4745 14.5666 84.2949 13.9556L100.456 1.92077C101.177 1.38435 102.166 1.3939 102.876 1.94414L116.061 12.1639C116.167 12.2462 116.281 12.3176 116.401 12.377L130.159 19.161C130.72 19.438 131.38 19.4359 131.94 19.1551L148.692 10.7566C149.256 10.4737 149.921 10.4738 150.485 10.757L157.897 14.4766C158.573 14.8159 159 15.5076 159 16.2641V25.9999H50.6245H16.9711H1Z" fill="url(#paint0_linear_1384_11068)"/>
</mask>
<g mask="url(#mask0_1384_11068)">
<ellipse cx="155.29" cy="24.6282" rx="1.14079" ry="0.609431" fill="#C4C4C4"/>
<ellipse cx="149.585" cy="24.6282" rx="1.14079" ry="0.609431" fill="#C4C4C4"/>
<ellipse cx="143.881" cy="24.6282" rx="1.14079" ry="0.609431" fill="#C4C4C4"/>
<ellipse cx="138.177" cy="24.6282" rx="1.14079" ry="0.609431" fill="#C4C4C4"/>
<ellipse cx="132.473" cy="24.6282" rx="1.14079" ry="0.609431" fill="#C4C4C4"/>
<ellipse cx="126.77" cy="24.6282" rx="1.14079" ry="0.609431" fill="#C4C4C4"/>
<ellipse cx="121.067" cy="24.6282" rx="1.14079" ry="0.609431" fill="#C4C4C4"/>
<ellipse cx="115.361" cy="24.6282" rx="1.14079" ry="0.609431" fill="#C4C4C4"/>
<ellipse cx="109.658" cy="24.6282" rx="1.14079" ry="0.609431" fill="#C4C4C4"/>
<ellipse cx="103.955" cy="24.6282" rx="1.14079" ry="0.609431" fill="#C4C4C4"/>
<ellipse cx="98.2502" cy="24.6282" rx="1.14079" ry="0.609431" fill="#C4C4C4"/>
<ellipse cx="92.5451" cy="24.6282" rx="1.14079" ry="0.609431" fill="#C4C4C4"/>
<ellipse cx="86.842" cy="24.6282" rx="1.14079" ry="0.609431" fill="#C4C4C4"/>
<ellipse cx="81.1374" cy="24.6282" rx="1.14079" ry="0.609431" fill="#C4C4C4"/>
<ellipse cx="75.4352" cy="24.6282" rx="1.14079" ry="0.609431" fill="#C4C4C4"/>
<ellipse cx="69.7306" cy="24.6282" rx="1.14079" ry="0.609431" fill="#C4C4C4"/>
<ellipse cx="64.0256" cy="24.6282" rx="1.14079" ry="0.609431" fill="#C4C4C4"/>
<ellipse cx="58.3224" cy="24.6282" rx="1.14079" ry="0.609431" fill="#C4C4C4"/>
<ellipse cx="52.6178" cy="24.6282" rx="1.14079" ry="0.609431" fill="#C4C4C4"/>
<ellipse cx="46.9133" cy="24.6282" rx="1.14079" ry="0.609431" fill="#C4C4C4"/>
<ellipse cx="41.2111" cy="24.6282" rx="1.14079" ry="0.609431" fill="#C4C4C4"/>
<ellipse cx="35.5055" cy="24.6282" rx="1.14079" ry="0.609431" fill="#C4C4C4"/>
<ellipse cx="29.8024" cy="24.6282" rx="1.14079" ry="0.609431" fill="#C4C4C4"/>
<ellipse cx="24.0973" cy="24.6282" rx="1.14079" ry="0.609431" fill="#C4C4C4"/>
<ellipse cx="18.3947" cy="24.6282" rx="1.14079" ry="0.609431" fill="#C4C4C4"/>
<ellipse cx="12.6896" cy="24.6282" rx="1.14079" ry="0.609431" fill="#C4C4C4"/>
<ellipse cx="6.98747" cy="24.6285" rx="1.14079" ry="0.609431" fill="#C4C4C4"/>
<ellipse cx="158.144" cy="22.1905" rx="1.14079" ry="0.609431" fill="#C4C4C4"/>
<ellipse cx="152.439" cy="22.1905" rx="1.14079" ry="0.609431" fill="#C4C4C4"/>
<ellipse cx="146.735" cy="22.1905" rx="1.14079" ry="0.609431" fill="#C4C4C4"/>
<ellipse cx="141.031" cy="22.1905" rx="1.14079" ry="0.609431" fill="#C4C4C4"/>
<ellipse cx="135.328" cy="22.1905" rx="1.14079" ry="0.609431" fill="#C4C4C4"/>
<ellipse cx="129.623" cy="22.1905" rx="1.14079" ry="0.609431" fill="#C4C4C4"/>
<ellipse cx="123.92" cy="22.1905" rx="1.14079" ry="0.609431" fill="#C4C4C4"/>
<ellipse cx="118.215" cy="22.1905" rx="1.14079" ry="0.609431" fill="#C4C4C4"/>
<ellipse cx="112.512" cy="22.1905" rx="1.14079" ry="0.609431" fill="#C4C4C4"/>
<ellipse cx="106.806" cy="22.1905" rx="1.14079" ry="0.609431" fill="#C4C4C4"/>
<ellipse cx="101.104" cy="22.1905" rx="1.14079" ry="0.609431" fill="#C4C4C4"/>
<ellipse cx="95.3981" cy="22.1905" rx="1.14079" ry="0.609431" fill="#C4C4C4"/>
<ellipse cx="89.696" cy="22.1905" rx="1.14079" ry="0.609431" fill="#C4C4C4"/>
<ellipse cx="83.9904" cy="22.1905" rx="1.14079" ry="0.609431" fill="#C4C4C4"/>
<ellipse cx="78.2873" cy="22.1905" rx="1.14079" ry="0.609431" fill="#C4C4C4"/>
<ellipse cx="72.5837" cy="22.1905" rx="1.14079" ry="0.609431" fill="#C4C4C4"/>
<ellipse cx="66.8796" cy="22.1905" rx="1.14079" ry="0.609431" fill="#C4C4C4"/>
<ellipse cx="61.175" cy="22.1905" rx="1.14079" ry="0.609431" fill="#C4C4C4"/>
<ellipse cx="55.4718" cy="22.1905" rx="1.14079" ry="0.609431" fill="#C4C4C4"/>
<ellipse cx="49.7673" cy="22.1905" rx="1.14079" ry="0.609431" fill="#C4C4C4"/>
<ellipse cx="44.0632" cy="22.1905" rx="1.14079" ry="0.609431" fill="#C4C4C4"/>
<ellipse cx="38.3586" cy="22.1905" rx="1.14079" ry="0.609431" fill="#C4C4C4"/>
<ellipse cx="32.6554" cy="22.1905" rx="1.14079" ry="0.609431" fill="#C4C4C4"/>
<ellipse cx="26.9513" cy="22.1905" rx="1.14079" ry="0.609431" fill="#C4C4C4"/>
<ellipse cx="21.2487" cy="22.1905" rx="1.14079" ry="0.609431" fill="#C4C4C4"/>
<ellipse cx="15.5436" cy="22.1905" rx="1.14079" ry="0.609431" fill="#C4C4C4"/>
<ellipse cx="9.83952" cy="22.1907" rx="1.14079" ry="0.609431" fill="#C4C4C4"/>
<ellipse cx="155.291" cy="19.753" rx="1.14079" ry="0.609431" fill="#C4C4C4"/>
<ellipse cx="149.587" cy="19.753" rx="1.14079" ry="0.609431" fill="#C4C4C4"/>
<ellipse cx="143.882" cy="19.753" rx="1.14079" ry="0.609431" fill="#C4C4C4"/>
<ellipse cx="138.178" cy="19.753" rx="1.14079" ry="0.609431" fill="#C4C4C4"/>
<ellipse cx="132.474" cy="19.753" rx="1.14079" ry="0.609431" fill="#C4C4C4"/>
<ellipse cx="126.772" cy="19.753" rx="1.14079" ry="0.609431" fill="#C4C4C4"/>
<ellipse cx="121.067" cy="19.753" rx="1.14079" ry="0.609431" fill="#C4C4C4"/>
<ellipse cx="115.362" cy="19.753" rx="1.14079" ry="0.609431" fill="#C4C4C4"/>
<ellipse cx="109.66" cy="19.753" rx="1.14079" ry="0.609431" fill="#C4C4C4"/>
<ellipse cx="103.954" cy="19.753" rx="1.14079" ry="0.609431" fill="#C4C4C4"/>
<ellipse cx="98.2521" cy="19.753" rx="1.14079" ry="0.609431" fill="#C4C4C4"/>
<ellipse cx="92.547" cy="19.753" rx="1.14079" ry="0.609431" fill="#C4C4C4"/>
<ellipse cx="86.8425" cy="19.753" rx="1.14079" ry="0.609431" fill="#C4C4C4"/>
<ellipse cx="81.1393" cy="19.753" rx="1.14079" ry="0.609431" fill="#C4C4C4"/>
<ellipse cx="75.4357" cy="19.753" rx="1.14079" ry="0.609431" fill="#C4C4C4"/>
<ellipse cx="69.7306" cy="19.753" rx="1.14079" ry="0.609431" fill="#C4C4C4"/>
<ellipse cx="64.028" cy="19.753" rx="1.14079" ry="0.609431" fill="#C4C4C4"/>
<ellipse cx="58.3239" cy="19.753" rx="1.14079" ry="0.609431" fill="#C4C4C4"/>
<ellipse cx="52.6193" cy="19.753" rx="1.14079" ry="0.609431" fill="#C4C4C4"/>
<ellipse cx="46.9142" cy="19.753" rx="1.14079" ry="0.609431" fill="#C4C4C4"/>
<ellipse cx="41.2111" cy="19.753" rx="1.14079" ry="0.609431" fill="#C4C4C4"/>
<ellipse cx="35.5075" cy="19.753" rx="1.14079" ry="0.609431" fill="#C4C4C4"/>
<ellipse cx="29.8029" cy="19.753" rx="1.14079" ry="0.609431" fill="#C4C4C4"/>
<ellipse cx="24.0998" cy="19.753" rx="1.14079" ry="0.609431" fill="#C4C4C4"/>
<ellipse cx="18.3947" cy="19.753" rx="1.14079" ry="0.609431" fill="#C4C4C4"/>
<ellipse cx="12.694" cy="19.753" rx="1.14079" ry="0.609431" fill="#C4C4C4"/>
<ellipse cx="158.144" cy="17.315" rx="1.14079" ry="0.609431" fill="#C4C4C4"/>
<ellipse cx="152.441" cy="17.315" rx="1.14079" ry="0.609431" fill="#C4C4C4"/>
<ellipse cx="146.736" cy="17.315" rx="1.14079" ry="0.609431" fill="#C4C4C4"/>
<ellipse cx="141.032" cy="17.315" rx="1.14079" ry="0.609431" fill="#C4C4C4"/>
<ellipse cx="135.329" cy="17.315" rx="1.14079" ry="0.609431" fill="#C4C4C4"/>
<ellipse cx="129.623" cy="17.315" rx="1.14079" ry="0.609431" fill="#C4C4C4"/>
<ellipse cx="123.92" cy="17.315" rx="1.14079" ry="0.609431" fill="#C4C4C4"/>
<ellipse cx="118.216" cy="17.315" rx="1.14079" ry="0.609431" fill="#C4C4C4"/>
<ellipse cx="112.512" cy="17.315" rx="1.14079" ry="0.609431" fill="#C4C4C4"/>
<ellipse cx="106.808" cy="17.315" rx="1.14079" ry="0.609431" fill="#C4C4C4"/>
<ellipse cx="101.104" cy="17.315" rx="1.14079" ry="0.609431" fill="#C4C4C4"/>
<ellipse cx="95.3986" cy="17.315" rx="1.14079" ry="0.609431" fill="#C4C4C4"/>
<ellipse cx="89.6965" cy="17.315" rx="1.14079" ry="0.609431" fill="#C4C4C4"/>
<ellipse cx="83.9909" cy="17.315" rx="1.14079" ry="0.609431" fill="#C4C4C4"/>
<ellipse cx="78.2878" cy="17.315" rx="1.14079" ry="0.609431" fill="#C4C4C4"/>
<ellipse cx="72.5842" cy="17.315" rx="1.14079" ry="0.609431" fill="#C4C4C4"/>
<ellipse cx="66.8801" cy="17.315" rx="1.14079" ry="0.609431" fill="#C4C4C4"/>
<ellipse cx="61.1755" cy="17.315" rx="1.14079" ry="0.609431" fill="#C4C4C4"/>
<ellipse cx="55.4723" cy="17.315" rx="1.14079" ry="0.609431" fill="#C4C4C4"/>
<ellipse cx="49.7677" cy="17.315" rx="1.14079" ry="0.609431" fill="#C4C4C4"/>
<ellipse cx="44.0636" cy="17.315" rx="1.14079" ry="0.609431" fill="#C4C4C4"/>
<ellipse cx="38.3605" cy="17.315" rx="1.14079" ry="0.609431" fill="#C4C4C4"/>
<ellipse cx="32.6559" cy="17.315" rx="1.14079" ry="0.609431" fill="#C4C4C4"/>
<ellipse cx="26.9518" cy="17.315" rx="1.14079" ry="0.609431" fill="#C4C4C4"/>
<ellipse cx="21.2492" cy="17.315" rx="1.14079" ry="0.609431" fill="#C4C4C4"/>
<ellipse cx="15.5441" cy="17.315" rx="1.14079" ry="0.609431" fill="#C4C4C4"/>
<ellipse cx="155.29" cy="14.8775" rx="1.14079" ry="0.609431" fill="#C4C4C4"/>
<ellipse cx="149.586" cy="14.8775" rx="1.14079" ry="0.609431" fill="#C4C4C4"/>
<ellipse cx="143.882" cy="14.8775" rx="1.14079" ry="0.609431" fill="#C4C4C4"/>
<ellipse cx="138.178" cy="14.8775" rx="1.14079" ry="0.609431" fill="#C4C4C4"/>
<ellipse cx="132.474" cy="14.8775" rx="1.14079" ry="0.609431" fill="#C4C4C4"/>
<ellipse cx="126.771" cy="14.8775" rx="1.14079" ry="0.609431" fill="#C4C4C4"/>
<ellipse cx="121.067" cy="14.8775" rx="1.14079" ry="0.609431" fill="#C4C4C4"/>
<ellipse cx="115.361" cy="14.8775" rx="1.14079" ry="0.609431" fill="#C4C4C4"/>
<ellipse cx="109.659" cy="14.8775" rx="1.14079" ry="0.609431" fill="#C4C4C4"/>
<ellipse cx="103.955" cy="14.8775" rx="1.14079" ry="0.609431" fill="#C4C4C4"/>
<ellipse cx="98.2502" cy="14.8775" rx="1.14079" ry="0.609431" fill="#C4C4C4"/>
<ellipse cx="92.5466" cy="14.8775" rx="1.14079" ry="0.609431" fill="#C4C4C4"/>
<ellipse cx="86.8434" cy="14.8775" rx="1.14079" ry="0.609431" fill="#C4C4C4"/>
<ellipse cx="81.1379" cy="14.8775" rx="1.14079" ry="0.609431" fill="#C4C4C4"/>
<ellipse cx="75.4357" cy="14.8775" rx="1.14079" ry="0.609431" fill="#C4C4C4"/>
<ellipse cx="69.7306" cy="14.8775" rx="1.14079" ry="0.609431" fill="#C4C4C4"/>
<ellipse cx="64.026" cy="14.8775" rx="1.14079" ry="0.609431" fill="#C4C4C4"/>
<ellipse cx="58.3229" cy="14.8775" rx="1.14079" ry="0.609431" fill="#C4C4C4"/>
<ellipse cx="52.6183" cy="14.8775" rx="1.14079" ry="0.609431" fill="#C4C4C4"/>
<ellipse cx="46.9137" cy="14.8775" rx="1.14079" ry="0.609431" fill="#C4C4C4"/>
<ellipse cx="41.2111" cy="14.8775" rx="1.14079" ry="0.609431" fill="#C4C4C4"/>
<ellipse cx="35.5065" cy="14.8775" rx="1.14079" ry="0.609431" fill="#C4C4C4"/>
<ellipse cx="29.8029" cy="14.8775" rx="1.14079" ry="0.609431" fill="#C4C4C4"/>
<ellipse cx="24.0988" cy="14.8775" rx="1.14079" ry="0.609431" fill="#C4C4C4"/>
<ellipse cx="18.3952" cy="14.8775" rx="1.14079" ry="0.609431" fill="#C4C4C4"/>
<ellipse cx="158.143" cy="12.4395" rx="1.14079" ry="0.609431" fill="#C4C4C4"/>
<ellipse cx="152.439" cy="12.4395" rx="1.14079" ry="0.609431" fill="#C4C4C4"/>
<ellipse cx="146.735" cy="12.4395" rx="1.14079" ry="0.609431" fill="#C4C4C4"/>
<ellipse cx="141.032" cy="12.4395" rx="1.14079" ry="0.609431" fill="#C4C4C4"/>
<ellipse cx="135.328" cy="12.4395" rx="1.14079" ry="0.609431" fill="#C4C4C4"/>
<ellipse cx="129.622" cy="12.4395" rx="1.14079" ry="0.609431" fill="#C4C4C4"/>
<ellipse cx="123.918" cy="12.4395" rx="1.14079" ry="0.609431" fill="#C4C4C4"/>
<ellipse cx="118.215" cy="12.4395" rx="1.14079" ry="0.609431" fill="#C4C4C4"/>
<ellipse cx="112.511" cy="12.4395" rx="1.14079" ry="0.609431" fill="#C4C4C4"/>
<ellipse cx="106.806" cy="12.4395" rx="1.14079" ry="0.609431" fill="#C4C4C4"/>
<ellipse cx="101.103" cy="12.4395" rx="1.14079" ry="0.609431" fill="#C4C4C4"/>
<ellipse cx="95.3981" cy="12.4395" rx="1.14079" ry="0.609431" fill="#C4C4C4"/>
<ellipse cx="89.6965" cy="12.4395" rx="1.14079" ry="0.609431" fill="#C4C4C4"/>
<ellipse cx="83.9894" cy="12.4395" rx="1.14079" ry="0.609431" fill="#C4C4C4"/>
<ellipse cx="78.2873" cy="12.4395" rx="1.14079" ry="0.609431" fill="#C4C4C4"/>
<ellipse cx="72.5822" cy="12.4395" rx="1.14079" ry="0.609431" fill="#C4C4C4"/>
<ellipse cx="66.8796" cy="12.4395" rx="1.14079" ry="0.609431" fill="#C4C4C4"/>
<ellipse cx="61.1745" cy="12.4395" rx="1.14079" ry="0.609431" fill="#C4C4C4"/>
<ellipse cx="55.4709" cy="12.4395" rx="1.14079" ry="0.609431" fill="#C4C4C4"/>
<ellipse cx="49.7668" cy="12.4395" rx="1.14079" ry="0.609431" fill="#C4C4C4"/>
<ellipse cx="44.0636" cy="12.4395" rx="1.14079" ry="0.609431" fill="#C4C4C4"/>
<ellipse cx="38.3591" cy="12.4395" rx="1.14079" ry="0.609431" fill="#C4C4C4"/>
<ellipse cx="32.655" cy="12.4395" rx="1.14079" ry="0.609431" fill="#C4C4C4"/>
<ellipse cx="26.9513" cy="12.4395" rx="1.14079" ry="0.609431" fill="#C4C4C4"/>
<ellipse cx="21.2482" cy="12.4398" rx="1.14079" ry="0.609431" fill="#C4C4C4"/>
<ellipse cx="155.291" cy="10.002" rx="1.14079" ry="0.609431" fill="#C4C4C4"/>
<ellipse cx="149.587" cy="10.002" rx="1.14079" ry="0.609431" fill="#C4C4C4"/>
<ellipse cx="143.883" cy="10.002" rx="1.14079" ry="0.609431" fill="#C4C4C4"/>
<ellipse cx="138.179" cy="10.002" rx="1.14079" ry="0.609431" fill="#C4C4C4"/>
<ellipse cx="132.475" cy="10.002" rx="1.14079" ry="0.609431" fill="#C4C4C4"/>
<ellipse cx="126.772" cy="10.002" rx="1.14079" ry="0.609431" fill="#C4C4C4"/>
<ellipse cx="121.068" cy="10.002" rx="1.14079" ry="0.609431" fill="#C4C4C4"/>
<ellipse cx="115.362" cy="10.002" rx="1.14079" ry="0.609431" fill="#C4C4C4"/>
<ellipse cx="109.66" cy="10.002" rx="1.14079" ry="0.609431" fill="#C4C4C4"/>
<ellipse cx="103.956" cy="10.002" rx="1.14079" ry="0.609431" fill="#C4C4C4"/>
<ellipse cx="98.2511" cy="10.002" rx="1.14079" ry="0.609431" fill="#C4C4C4"/>
<ellipse cx="92.5475" cy="10.002" rx="1.14079" ry="0.609431" fill="#C4C4C4"/>
<ellipse cx="86.8444" cy="10.002" rx="1.14079" ry="0.609431" fill="#C4C4C4"/>
<ellipse cx="81.1388" cy="10.002" rx="1.14079" ry="0.609431" fill="#C4C4C4"/>
<ellipse cx="75.4367" cy="10.002" rx="1.14079" ry="0.609431" fill="#C4C4C4"/>
<ellipse cx="69.7316" cy="10.002" rx="1.14079" ry="0.609431" fill="#C4C4C4"/>
<ellipse cx="64.027" cy="10.002" rx="1.14079" ry="0.609431" fill="#C4C4C4"/>
<ellipse cx="58.3239" cy="10.002" rx="1.14079" ry="0.609431" fill="#C4C4C4"/>
<ellipse cx="52.6203" cy="10.002" rx="1.14079" ry="0.609431" fill="#C4C4C4"/>
<ellipse cx="46.9152" cy="10.002" rx="1.14079" ry="0.609431" fill="#C4C4C4"/>
<ellipse cx="41.2121" cy="10.002" rx="1.14079" ry="0.609431" fill="#C4C4C4"/>
<ellipse cx="35.5085" cy="10.002" rx="1.14079" ry="0.609431" fill="#C4C4C4"/>
<ellipse cx="29.8039" cy="10.002" rx="1.14079" ry="0.609431" fill="#C4C4C4"/>
<ellipse cx="24.0993" cy="10.0023" rx="1.14079" ry="0.609431" fill="#C4C4C4"/>
<ellipse cx="158.142" cy="7.56426" rx="1.14079" ry="0.609431" fill="#C4C4C4"/>
<ellipse cx="152.439" cy="7.56426" rx="1.14079" ry="0.609431" fill="#C4C4C4"/>
<ellipse cx="146.734" cy="7.56426" rx="1.14079" ry="0.609431" fill="#C4C4C4"/>
<ellipse cx="141.03" cy="7.56426" rx="1.14079" ry="0.609431" fill="#C4C4C4"/>
<ellipse cx="135.327" cy="7.56426" rx="1.14079" ry="0.609431" fill="#C4C4C4"/>
<ellipse cx="129.621" cy="7.56426" rx="1.14079" ry="0.609431" fill="#C4C4C4"/>
<ellipse cx="123.918" cy="7.56426" rx="1.14079" ry="0.609431" fill="#C4C4C4"/>
<ellipse cx="118.213" cy="7.56426" rx="1.14079" ry="0.609431" fill="#C4C4C4"/>
<ellipse cx="112.51" cy="7.56426" rx="1.14079" ry="0.609431" fill="#C4C4C4"/>
<ellipse cx="106.806" cy="7.56426" rx="1.14079" ry="0.609431" fill="#C4C4C4"/>
<ellipse cx="101.101" cy="7.56426" rx="1.14079" ry="0.609431" fill="#C4C4C4"/>
<ellipse cx="95.3981" cy="7.56426" rx="1.14079" ry="0.609431" fill="#C4C4C4"/>
<ellipse cx="89.695" cy="7.56426" rx="1.14079" ry="0.609431" fill="#C4C4C4"/>
<ellipse cx="83.9884" cy="7.56426" rx="1.14079" ry="0.609431" fill="#C4C4C4"/>
<ellipse cx="78.2863" cy="7.56426" rx="1.14079" ry="0.609431" fill="#C4C4C4"/>
<ellipse cx="72.5817" cy="7.56426" rx="1.14079" ry="0.609431" fill="#C4C4C4"/>
<ellipse cx="66.8776" cy="7.56426" rx="1.14079" ry="0.609431" fill="#C4C4C4"/>
<ellipse cx="61.1745" cy="7.56426" rx="1.14079" ry="0.609431" fill="#C4C4C4"/>
<ellipse cx="55.4699" cy="7.56426" rx="1.14079" ry="0.609431" fill="#C4C4C4"/>
<ellipse cx="49.7668" cy="7.56426" rx="1.14079" ry="0.609431" fill="#C4C4C4"/>
<ellipse cx="44.0632" cy="7.56426" rx="1.14079" ry="0.609431" fill="#C4C4C4"/>
<ellipse cx="38.3581" cy="7.56426" rx="1.14079" ry="0.609431" fill="#C4C4C4"/>
<ellipse cx="32.6535" cy="7.56426" rx="1.14079" ry="0.609431" fill="#C4C4C4"/>
<ellipse cx="26.9513" cy="7.56426" rx="1.14079" ry="0.609431" fill="#C4C4C4"/>
<ellipse cx="155.293" cy="5.12652" rx="1.14079" ry="0.609431" fill="#C4C4C4"/>
<ellipse cx="149.589" cy="5.12652" rx="1.14079" ry="0.609431" fill="#C4C4C4"/>
<ellipse cx="143.884" cy="5.12652" rx="1.14079" ry="0.609431" fill="#C4C4C4"/>
<ellipse cx="138.181" cy="5.12652" rx="1.14079" ry="0.609431" fill="#C4C4C4"/>
<ellipse cx="132.477" cy="5.12652" rx="1.14079" ry="0.609431" fill="#C4C4C4"/>
<ellipse cx="126.773" cy="5.12652" rx="1.14079" ry="0.609431" fill="#C4C4C4"/>
<ellipse cx="121.068" cy="5.12652" rx="1.14079" ry="0.609431" fill="#C4C4C4"/>
<ellipse cx="115.364" cy="5.12652" rx="1.14079" ry="0.609431" fill="#C4C4C4"/>
<ellipse cx="109.66" cy="5.12652" rx="1.14079" ry="0.609431" fill="#C4C4C4"/>
<ellipse cx="103.958" cy="5.12652" rx="1.14079" ry="0.609431" fill="#C4C4C4"/>
<ellipse cx="98.2526" cy="5.12652" rx="1.14079" ry="0.609431" fill="#C4C4C4"/>
<ellipse cx="92.5485" cy="5.12652" rx="1.14079" ry="0.609431" fill="#C4C4C4"/>
<ellipse cx="86.8439" cy="5.12652" rx="1.14079" ry="0.609431" fill="#C4C4C4"/>
<ellipse cx="81.1408" cy="5.12652" rx="1.14079" ry="0.609431" fill="#C4C4C4"/>
<ellipse cx="75.4367" cy="5.12652" rx="1.14079" ry="0.609431" fill="#C4C4C4"/>
<ellipse cx="69.7321" cy="5.12652" rx="1.14079" ry="0.609431" fill="#C4C4C4"/>
<ellipse cx="64.029" cy="5.12652" rx="1.14079" ry="0.609431" fill="#C4C4C4"/>
<ellipse cx="58.3254" cy="5.12652" rx="1.14079" ry="0.609431" fill="#C4C4C4"/>
<ellipse cx="52.6203" cy="5.12652" rx="1.14079" ry="0.609431" fill="#C4C4C4"/>
<ellipse cx="46.9176" cy="5.12652" rx="1.14079" ry="0.609431" fill="#C4C4C4"/>
<ellipse cx="41.2135" cy="5.12652" rx="1.14079" ry="0.609431" fill="#C4C4C4"/>
<ellipse cx="35.5094" cy="5.12652" rx="1.14079" ry="0.609431" fill="#C4C4C4"/>
<ellipse cx="29.8058" cy="5.12676" rx="1.14079" ry="0.609431" fill="#C4C4C4"/>
<ellipse cx="158.144" cy="2.68878" rx="1.14079" ry="0.609431" fill="#C4C4C4"/>
<ellipse cx="152.44" cy="2.68878" rx="1.14079" ry="0.609431" fill="#C4C4C4"/>
<ellipse cx="146.735" cy="2.68878" rx="1.14079" ry="0.609431" fill="#C4C4C4"/>
<ellipse cx="141.031" cy="2.68878" rx="1.14079" ry="0.609431" fill="#C4C4C4"/>
<ellipse cx="135.328" cy="2.68878" rx="1.14079" ry="0.609431" fill="#C4C4C4"/>
<ellipse cx="129.623" cy="2.68878" rx="1.14079" ry="0.609431" fill="#C4C4C4"/>
<ellipse cx="123.92" cy="2.68878" rx="1.14079" ry="0.609431" fill="#C4C4C4"/>
<ellipse cx="118.215" cy="2.68878" rx="1.14079" ry="0.609431" fill="#C4C4C4"/>
<ellipse cx="112.511" cy="2.68878" rx="1.14079" ry="0.609431" fill="#C4C4C4"/>
<ellipse cx="106.808" cy="2.68878" rx="1.14079" ry="0.609431" fill="#C4C4C4"/>
<ellipse cx="101.103" cy="2.68878" rx="1.14079" ry="0.609431" fill="#C4C4C4"/>
<ellipse cx="95.3981" cy="2.68878" rx="1.14079" ry="0.609431" fill="#C4C4C4"/>
<ellipse cx="89.696" cy="2.68878" rx="1.14079" ry="0.609431" fill="#C4C4C4"/>
<ellipse cx="83.9904" cy="2.68878" rx="1.14079" ry="0.609431" fill="#C4C4C4"/>
<ellipse cx="78.2868" cy="2.68878" rx="1.14079" ry="0.609431" fill="#C4C4C4"/>
<ellipse cx="72.5837" cy="2.68878" rx="1.14079" ry="0.609431" fill="#C4C4C4"/>
<ellipse cx="66.8791" cy="2.68878" rx="1.14079" ry="0.609431" fill="#C4C4C4"/>
<ellipse cx="61.175" cy="2.68878" rx="1.14079" ry="0.609431" fill="#C4C4C4"/>
<ellipse cx="55.4718" cy="2.68878" rx="1.14079" ry="0.609431" fill="#C4C4C4"/>
<ellipse cx="49.7673" cy="2.68878" rx="1.14079" ry="0.609431" fill="#C4C4C4"/>
<ellipse cx="44.0632" cy="2.68878" rx="1.14079" ry="0.609431" fill="#C4C4C4"/>
<ellipse cx="38.36" cy="2.68878" rx="1.14079" ry="0.609431" fill="#C4C4C4"/>
<ellipse cx="32.6559" cy="2.68878" rx="1.14079" ry="0.609431" fill="#C4C4C4"/>
</g>
<path opacity="0.3" d="M1 25.9999L9.03619 21.5637C9.3566 21.3868 9.74802 21.3991 10.0567 21.5957L16.2094 25.5147C16.642 25.7902 17.2131 25.6937 17.5311 25.2913L27.0765 13.2141C27.4597 12.7292 28.1867 12.7046 28.6018 13.1624L36.0045 21.3269C36.365 21.7244 36.9751 21.7666 37.3868 21.4223L42.4182 17.2153C42.8511 16.8532 43.4977 16.921 43.8462 17.3649L49.907 25.0858C50.2847 25.5669 51.002 25.5993 51.4214 25.1541L71.2794 4.07866C71.6768 3.65684 72.3485 3.66015 72.7418 4.08586L82.2416 14.3694C82.5887 14.7451 83.1632 14.7983 83.5734 14.4929L101.066 1.46697C101.426 1.19877 101.921 1.20354 102.276 1.47866L116.14 12.2258C116.193 12.2669 116.251 12.3026 116.311 12.3323L130.605 19.3809C130.885 19.5194 131.215 19.5184 131.495 19.378L149.14 10.5318C149.422 10.3903 149.755 10.3904 150.037 10.532L159 15.0301" stroke="white" stroke-width="2"/>
<defs>
<linearGradient id="paint0_linear_1384_11068" x1="80" y1="1.01318" x2="80" y2="25.9999" gradientUnits="userSpaceOnUse">
<stop stop-color="white"/>
<stop offset="1" stop-color="white" stop-opacity="0"/>
</linearGradient>
</defs>
</svg>
